<?xml version="1.0" encoding="UTF-8"?>
<!DOCTYPE svg PUBLIC "-//W3C//DTD SVG 1.1//EN" "http://www.w3.org/Graphics/SVG/1.1/DTD/svg11.dtd">
<!-- Creator: CorelDRAW -->
<svg xmlns="http://www.w3.org/2000/svg" xml:space="preserve" width="344.805mm" height="427.683mm" version="1.1" style="shape-rendering:geometricPrecision; text-rendering:geometricPrecision; image-rendering:optimizeQuality; fill-rule:evenodd; clip-rule:evenodd"
viewBox="0 0 5530.51 6859.82"
 xmlns:xlink="http://www.w3.org/1999/xlink"
 xmlns:xodm="http://www.corel.com/coreldraw/odm/2003">
 <defs>
  <style type="text/css">
   <![CDATA[
    .str1 {stroke:#1B0E03;stroke-width:1.22;stroke-miterlimit:22.9256}
    .str0 {stroke:#333333;stroke-width:1.22;stroke-miterlimit:22.9256}
    .fil3 {fill:none}
    .fil15 {fill:black}
    .fil19 {fill:#1B0E03}
    .fil8 {fill:#232323}
    .fil13 {fill:#342219}
    .fil12 {fill:#493529}
    .fil9 {fill:#58463A}
    .fil17 {fill:#91674C}
    .fil16 {fill:#A57B61}
    .fil7 {fill:white}
    .fil10 {fill:#333333}
    .fil5 {fill:url(#id9)}
    .fil1 {fill:url(#id10)}
    .fil0 {fill:url(#id11)}
    .fil4 {fill:url(#id12)}
    .fil11 {fill:url(#id13)}
    .fil2 {fill:url(#id14)}
    .fil6 {fill:url(#id15)}
    .fil14 {fill:url(#id16)}
    .fil18 {fill:url(#id17)}
   ]]>
  </style>
   <clipPath id="id0">
    <path d="M577.07 3924.1l4358.37 -0.1c150.64,-0 248.31,147.42 239.82,297.8l-134.82 2387.27c-8.49,150.38 -46.22,246.66 -196.84,246.68l-4164.52 0.7c-150.62,0.02 -187.94,-133.33 -196.76,-283.7l-139.6 -2380.57c-8.82,-150.38 83.72,-268.07 234.36,-268.07z"/>
   </clipPath>
   <clipPath id="id1">
    <path d="M2758.96 5125.54c0,8.82 0.01,9.17 0.72,17.8 3.08,0 4.88,0.36 7.63,0.36 10.31,0 22.8,-1.99 32.51,-5.25 4.81,-1.62 9.21,-3.24 13.49,-5.4 2.21,-1.11 4.21,-2.06 6.3,-3.14 13.9,-7.23 26.32,-17.79 37.31,-28.78 23.54,-23.54 40.57,-52.74 46.16,-86.03 1.41,-8.41 1.07,-9.35 1.5,-17.38l-0.36 -18.16c-17.84,0 -41.5,8.4 -56.65,15.98 -16.24,8.12 -33.16,19.67 -44.95,32.41l-4.19 4.89c-0.87,1.03 -1.31,1.32 -2.23,2.49 -10.08,12.9 -11.42,14.21 -20.07,29.69 -0.67,1.19 -1.04,1.72 -1.69,3.03 -4.06,8.19 -7.55,16.54 -10.28,26.03 -2.51,8.72 -5.21,20.57 -5.21,31.47z"/>
   </clipPath>
   <clipPath id="id2">
    <path d="M4115.71 3299.68c0,0 -86.85,-366.17 -476.5,-356.79 -389.65,9.39 -477.05,392.85 -469.7,451.63 7.35,58.78 170.83,270.02 484.94,242.47 314.11,-27.55 461.26,-337.32 461.26,-337.32z"/>
   </clipPath>
   <clipPath id="id3">
    <path d="M4115.71 3299.68c0,0 -86.85,-366.17 -476.5,-356.79 -389.65,9.39 -477.05,392.85 -469.7,451.63 7.35,58.78 170.83,270.02 484.94,242.47 314.11,-27.55 461.26,-337.32 461.26,-337.32z"/>
   </clipPath>
   <clipPath id="id4">
    <path d="M904.67 2759.82l204.94 -38.28c0,0 393.4,-108.76 799.29,-43.6 405.89,65.17 703.5,134.47 703.5,134.47 0,0 193.7,-17.45 322.08,6.92 0,0 605.16,-175.92 880.27,-167.71 275.11,8.21 689.84,86.23 689.84,86.23l129.82 22.75c0,0 46.96,160.73 23.48,234.77l-117.39 119.19c0,0 -16.56,744.09 -350.22,812.53l-886.55 2.76c0,0 -154.92,-35.93 -334.88,-558.92 0,0 -53.64,-305.46 -197.63,-299.87 -143.99,5.59 -197.11,229.27 -197.11,229.27 0,0 -103.23,492.12 -334.03,626.58l-931.82 1.06c0,0 -280.02,-124.72 -280.02,-614.56 0,0 -13.51,-178.63 -42.99,-210.07 -29.47,-31.44 -108,-88.34 -108,-88.34l27.4 -255.19zm962.34 73.17c0,0 558.36,17.16 569.57,227.34 11.21,210.18 -109.29,753.84 -434.37,798.68 -325.08,44.84 -560.48,-16.81 -658.56,-120.5 -98.08,-103.69 -170.51,-247.85 -145.59,-671.36 0,0 14.08,-220.48 259.79,-231.16 245.71,-10.68 409.17,-2.99 409.17,-2.99zm1810.53 8.52c0,0 -558.36,17.16 -569.57,227.34 -11.21,210.18 109.29,753.84 434.37,798.68 325.08,44.84 560.48,-16.81 658.56,-120.5 98.08,-103.69 170.51,-247.85 145.59,-671.36 0,0 -14.08,-220.48 -259.79,-231.16 -245.71,-10.68 -409.17,-2.99 -409.17,-2.99z"/>
   </clipPath>
   <clipPath id="id5">
    <path d="M904.67 2759.82l204.94 -38.28c0,0 393.4,-108.76 799.29,-43.6 405.89,65.17 703.5,134.47 703.5,134.47 0,0 193.7,-17.45 322.08,6.92 0,0 605.16,-175.92 880.27,-167.71 275.11,8.21 689.84,86.23 689.84,86.23l129.82 22.75c0,0 46.96,160.73 23.48,234.77l-117.39 119.19c0,0 -16.56,744.09 -350.22,812.53l-886.55 2.76c0,0 -154.92,-35.93 -334.88,-558.92 0,0 -53.64,-305.46 -197.63,-299.87 -143.99,5.59 -197.11,229.27 -197.11,229.27 0,0 -103.23,492.12 -334.03,626.58l-931.82 1.06c0,0 -280.02,-124.72 -280.02,-614.56 0,0 -13.51,-178.63 -42.99,-210.07 -29.47,-31.44 -108,-88.34 -108,-88.34l27.4 -255.19zm962.34 73.17c0,0 558.36,17.16 569.57,227.34 11.21,210.18 -109.29,753.84 -434.37,798.68 -325.08,44.84 -560.48,-16.81 -658.56,-120.5 -98.08,-103.69 -170.51,-247.85 -145.59,-671.36 0,0 14.08,-220.48 259.79,-231.16 245.71,-10.68 409.17,-2.99 409.17,-2.99zm1810.53 8.52c0,0 -558.36,17.16 -569.57,227.34 -11.21,210.18 109.29,753.84 434.37,798.68 325.08,44.84 560.48,-16.81 658.56,-120.5 98.08,-103.69 170.51,-247.85 145.59,-671.36 0,0 -14.08,-220.48 -259.79,-231.16 -245.71,-10.68 -409.17,-2.99 -409.17,-2.99z"/>
   </clipPath>
   <clipPath id="id6">
    <path d="M904.67 2759.82l204.94 -38.28c0,0 393.4,-108.76 799.29,-43.6 405.89,65.17 703.5,134.47 703.5,134.47 0,0 193.7,-17.45 322.08,6.92 0,0 605.16,-175.92 880.27,-167.71 275.11,8.21 689.84,86.23 689.84,86.23l129.82 22.75c0,0 46.96,160.73 23.48,234.77l-117.39 119.19c0,0 -16.56,744.09 -350.22,812.53l-886.55 2.76c0,0 -154.92,-35.93 -334.88,-558.92 0,0 -53.64,-305.46 -197.63,-299.87 -143.99,5.59 -197.11,229.27 -197.11,229.27 0,0 -103.23,492.12 -334.03,626.58l-931.82 1.06c0,0 -280.02,-124.72 -280.02,-614.56 0,0 -13.51,-178.63 -42.99,-210.07 -29.47,-31.44 -108,-88.34 -108,-88.34l27.4 -255.19zm962.34 73.17c0,0 558.36,17.16 569.57,227.34 11.21,210.18 -109.29,753.84 -434.37,798.68 -325.08,44.84 -560.48,-16.81 -658.56,-120.5 -98.08,-103.69 -170.51,-247.85 -145.59,-671.36 0,0 14.08,-220.48 259.79,-231.16 245.71,-10.68 409.17,-2.99 409.17,-2.99zm1810.53 8.52c0,0 -558.36,17.16 -569.57,227.34 -11.21,210.18 109.29,753.84 434.37,798.68 325.08,44.84 560.48,-16.81 658.56,-120.5 98.08,-103.69 170.51,-247.85 145.59,-671.36 0,0 -14.08,-220.48 -259.79,-231.16 -245.71,-10.68 -409.17,-2.99 -409.17,-2.99z"/>
   </clipPath>
   <clipPath id="id7">
    <path d="M2240.09 3926.92l1044.18 -2.88c0,0 -157.15,-100.69 -311.11,-574.42 0,0 -63.74,-283.52 -201.1,-283.52 -137.36,0 -194.82,217.25 -194.82,217.25 0,0 -95,446 -337.14,643.57z"/>
   </clipPath>
   <clipPath id="id8">
    <path d="M877.27 3015l26.92 -250.71 124.29 -22.87c0,0 37.53,-168.88 90.75,-467.77 53.23,-298.89 103.2,-642.63 522.92,-709.92 419.73,-67.28 801.01,51.26 1131.02,44.86 330.01,-6.41 544.59,-72.22 786.83,-44.42 242.24,27.8 710.84,250.18 734.67,317.69 23.83,67.51 104.11,391.22 112.15,481.6 8.03,90.39 74.32,373.59 74.32,373.59l140.07 33.86 19.12 222.86 -114.53 125.67 29.45 12.4 51.14 -51.14c0,0 23.25,-52.69 65.09,-75.94l-4.65 -119.33 35.64 -127.08 44.27 -548.48c0,0 40.08,-216.91 73.19,-264.22 33.12,-47.31 94.94,-397.14 25.16,-576.15 0,0 158.2,-125.97 192.14,-210.14 33.94,-84.17 81.89,-189.38 59.31,-343.31 0,0 -1.72,-23.44 -8.61,-21.85 -6.89,1.59 -6.89,4.77 -15.89,33.38 -9.01,28.61 -84.55,204.61 -181.58,199.73 -97.03,-4.89 -148.93,3.95 -268.02,-105.48 -119.09,-109.43 -684.28,-871.25 -1462.08,-888.25 0,0 -535,-52.68 -778.85,-17.04 -243.85,35.64 -778.97,141.84 -993.96,356.83 -214.99,214.99 -232.73,424.2 -232.73,424.2 0,0 -80.27,-42.72 -167.98,-18.72 -87.72,24 -447.47,360.34 -340.82,1000.22 106.65,639.88 111.86,65.68 231.22,1235.93z"/>
   </clipPath>
  <linearGradient id="id9" gradientUnits="userSpaceOnUse" x1="2806.67" y1="5135.98" x2="2904.22" y2="4979.55">
   <stop offset="0" style="stop-opacity:1; stop-color:#D1D1D3"/>
   <stop offset="1" style="stop-opacity:1; stop-color:#D5D6D8"/>
  </linearGradient>
  <linearGradient id="id10" gradientUnits="userSpaceOnUse" x1="244.44" y1="6787.46" x2="377.83" y2="5816.35">
   <stop offset="0" style="stop-opacity:1; stop-color:#718CA6"/>
   <stop offset="1" style="stop-opacity:1; stop-color:#6B7E94"/>
  </linearGradient>
  <linearGradient id="id11" gradientUnits="userSpaceOnUse" xlink:href="#id10" x1="5113.4" y1="6797.53" x2="5226.6" y2="5889.52">
  </linearGradient>
  <linearGradient id="id12" gradientUnits="userSpaceOnUse" xlink:href="#id9" x1="2776.08" y1="5644.07" x2="2773.04" y2="5174.27">
  </linearGradient>
  <linearGradient id="id13" gradientUnits="userSpaceOnUse" x1="2825.94" y1="4436.65" x2="2773.73" y2="2806.41">
   <stop offset="0" style="stop-opacity:1; stop-color:#A57B61"/>
   <stop offset="1" style="stop-opacity:1; stop-color:#D1B39D"/>
  </linearGradient>
  <linearGradient id="id14" gradientUnits="userSpaceOnUse" x1="2656.51" y1="7699.72" x2="2574.05" y2="3883.19">
   <stop offset="0" style="stop-opacity:1; stop-color:#828083"/>
   <stop offset="0.439216" style="stop-opacity:1; stop-color:#A4A3A7"/>
   <stop offset="1" style="stop-opacity:1; stop-color:#C6C7CB"/>
  </linearGradient>
  <radialGradient id="id15" gradientUnits="userSpaceOnUse" gradientTransform="matrix(0.0683085 1.04549 -1.14887 0.00379495 5102 -716)" cx="2773.31" cy="2191.73" r="2136.65" fx="2773.31" fy="2191.73">
   <stop offset="0" style="stop-opacity:1; stop-color:#FFD3BF"/>
   <stop offset="0.678431" style="stop-opacity:1; stop-color:#C89D85"/>
   <stop offset="1" style="stop-opacity:1; stop-color:#91674C"/>
  </radialGradient>
  <radialGradient id="id16" gradientUnits="userSpaceOnUse" gradientTransform="matrix(0.923952 -1.00548 1.39952 1.73921 -4708 -498)" cx="2059.86" cy="3475.86" r="219.16" fx="2059.86" fy="3475.86">
   <stop offset="0" style="stop-opacity:1; stop-color:#948878"/>
   <stop offset="0.431373" style="stop-opacity:1; stop-color:#62574B"/>
   <stop offset="1" style="stop-opacity:1; stop-color:#30271F"/>
  </radialGradient>
  <radialGradient id="id17" gradientUnits="userSpaceOnUse" gradientTransform="matrix(-0.923952 -1.00548 -1.39952 1.73921 12083 1203)" xlink:href="#id16" cx="3751.95" cy="3475.86" r="219.16" fx="3751.95" fy="3475.86">
  </radialGradient>
 </defs>
 <g id="Capa_x0020_1">
  <metadata id="CorelCorpID_0Corel-Layer"/>
  <path class="fil0" d="M4850.52 6855.67l646.5 3.57c0,0 49.38,12.47 28.22,-78.35 -21.16,-90.82 -195.22,-873 -431.8,-1112.7l-58.37 1003.51c0,0 -20.14,184.88 -184.55,183.97z"/>
  <path class="fil1" d="M662.23 6855.82l-631.16 0.07c0,0 -46.73,0.55 -25.57,-90.27 21.16,-90.82 190.82,-948.65 427.4,-1188.35l62.77 1079.15c0,0 11.54,174.39 166.56,199.4z"/>
  <g>
  </g>
  <g style="clip-path:url(#id0)">
   <g id="_1421543337824">
    <polygon class="fil2" points="-284.13,3115.33 5801.93,3115.33 5801.93,7699.72 -284.13,7699.72 "/>
   </g>
  </g>
  <path class="fil3" d="M577.07 3924.1l4358.37 -0.1c150.64,-0 248.31,147.42 239.82,297.8l-134.82 2387.27c-8.49,150.38 -46.22,246.66 -196.84,246.68l-4164.52 0.7c-150.62,0.02 -187.94,-133.33 -196.76,-283.7l-139.6 -2380.57c-8.82,-150.38 83.72,-268.07 234.36,-268.07z"/>
  <path class="fil4" d="M2646.74 5145.15c-18.28,0 -35.62,2.95 -52.43,8.58 -10.05,3.37 -19.83,7.59 -29.03,12.73l-11.29 6.87c-4.91,3.29 -9.46,6.37 -13.93,10.03 -4.48,3.67 -8.62,7.18 -12.7,11.26 -1.97,1.97 -4.19,3.95 -5.99,6 -3.74,4.24 -7.51,8.5 -10.91,13.06 -6.06,8.13 -11.21,16.54 -16.45,25.32 -3.82,6.4 -6.98,13.43 -9.75,20.39 -1.2,3.01 -2.14,5.62 -3.32,8.66 -3.57,9.24 -5.71,18.41 -7.92,28.03 -0.81,3.49 -1.19,6.47 -1.88,10.1 -1.94,10.2 -3.48,27.46 -3.8,37.97 -0.68,22.65 1.78,47.64 5.15,67.87 3.54,21.31 8.91,42.02 15.7,62.38 1.36,4.09 2.74,7.53 4.09,11.53 7.03,20.86 16.65,40.07 26.52,59.55 0.58,1.15 0.88,1.45 1.46,2.54 0.58,1.09 0.8,1.54 1.42,2.58 3.88,6.54 7.47,13.23 11.7,19.53 2.14,3.19 4.16,6.23 6.25,9.37 2.1,3.15 4.31,5.99 6.46,9.15 1.11,1.62 2.05,2.77 3.2,4.43l10.11 13.5c3.56,4.76 12.93,16.77 17.55,21.31 2.85,2.81 5.93,6.64 9.62,9.99l3.81 3.81c0.92,0.93 1.22,1.03 2.17,1.83 2.86,2.39 5.3,5.09 8.3,7.32l13.89 9.72c9.97,6.3 23.63,11.18 36.03,11.18 13.14,0 22.82,-2.04 35.1,-5.57 18.98,-5.46 34.55,-13.9 54.08,-18.19 5.26,-1.16 9.71,-2 15.34,-2.82 6.36,-0.92 14.47,-1.79 20.82,-1.08 1.32,0.15 2.96,0.04 4.32,0.04 2.57,0 5.8,0.48 8.31,0.77 5.33,0.6 10.38,1.58 15.43,2.73 4.96,1.14 9.61,2.39 14.25,3.91 25.5,8.33 44.58,19.48 73.49,19.48 20.31,0 38.84,-8.97 53.96,-20.85l11.35 -10.07c3.9,-3.11 7.02,-7.37 10.49,-10.94 6.12,-6.3 11.61,-13.52 16.85,-20.55 6.1,-8.17 12.35,-16.34 18.03,-24.82l6.54 -9.8c8.01,-11.93 14.78,-24.71 21.26,-37.57 4.2,-8.33 7.96,-17.24 11.45,-25.96l8.77 -23.55c-1.57,-0.83 -3.24,-1.47 -4.96,-2.3l-9.68 -4.84c-18.45,-9.13 -39.77,-28.53 -51.71,-44.53 -4.17,-5.59 -8.2,-11.48 -11.6,-17.81 -0.49,-0.92 -0.78,-1.61 -1.2,-2.43l-3.64 -7.25c-0.77,-1.57 -1.45,-3.48 -2.16,-5.1 -2.35,-5.31 -3.96,-10.88 -5.53,-16.62 -7.52,-27.57 -7.27,-63.07 1.66,-89.64 5.43,-16.14 13.59,-32.38 24.84,-45.25 9.55,-10.93 14.87,-15.76 26.14,-25.06 1.22,-1.01 2.5,-1.81 3.77,-2.77 2.07,-1.56 13.04,-9.54 15.56,-10.22 -5.54,-8.27 -15.04,-19.41 -22.79,-26.24l-8.92 -7.42c-16.41,-13.37 -36.81,-22.5 -57.06,-28.28 -15.66,-4.47 -35.53,-7.78 -51.41,-7.78 -12.08,0 -24.47,1.73 -34.43,4.07 -16.18,3.79 -35.38,9.76 -51.17,16.01 -2.38,0.94 -4.81,1.73 -7.23,2.58 -4.99,1.75 -9.43,3.05 -14.53,4.71 -7.27,2.37 -15.51,5.48 -23.36,4.94 -13.48,-0.93 -50.04,-15.59 -65.88,-20.92 -14.4,-4.84 -32.52,-9.58 -48.53,-9.58z"/>
  <path class="fil5" d="M2758.96 5125.54c0,8.82 0.01,9.17 0.72,17.8 3.08,0 4.88,0.36 7.63,0.36 10.31,0 22.8,-1.99 32.51,-5.25 4.81,-1.62 9.21,-3.24 13.49,-5.4 2.21,-1.11 4.21,-2.06 6.3,-3.14 13.9,-7.23 26.32,-17.79 37.31,-28.78 23.54,-23.54 40.57,-52.74 46.16,-86.03 1.41,-8.41 1.07,-9.35 1.5,-17.38l-0.36 -18.16c-17.84,0 -41.5,8.4 -56.65,15.98 -16.24,8.12 -33.16,19.67 -44.95,32.41l-4.19 4.89c-0.87,1.03 -1.31,1.32 -2.23,2.49 -10.08,12.9 -11.42,14.21 -20.07,29.69 -0.67,1.19 -1.04,1.72 -1.69,3.03 -4.06,8.19 -7.55,16.54 -10.28,26.03 -2.51,8.72 -5.21,20.57 -5.21,31.47z"/>
  <g style="clip-path:url(#id1)">
   <image x="2758.96" y="4979.55" width="145.62" height="164.15" xlink:href="avatar_Images\avatar_ImgID1.png"/>
  </g>
  <path class="fil6" d="M757.61 3924.1c0,0 -80.21,-283.82 -108.47,-504.25 -28.26,-220.42 -5.31,-330.6 36.7,-393.61 42.01,-63.01 111.49,-96.95 210.05,22.62 98.56,119.57 94.74,13.99 95.96,-9.22 1.22,-23.21 35.19,-326.22 35.19,-326.22 0,0 54.1,-271.98 77.73,-354.7 23.63,-82.72 29.54,-546.52 330.86,-782.85 301.32,-236.33 545.31,-48.74 1299.32,-62.25 754.01,-13.51 766.52,-93.04 1041.47,-53.32 274.96,39.72 424.23,165.86 557.57,491.8 0,0 47.19,188.67 74.03,342.36 26.83,153.69 76.53,408.34 81.86,429.68 5.33,21.34 15.89,462.96 78.98,382.75 63.09,-80.2 113.13,-145.77 198.68,-145.77 85.55,0 198.96,140.26 110.05,598.47 0,0 -92.56,364.42 -105.31,364.42l-4014.68 0.09z"/>
  <path class="fil7" d="M1407.29 3250.02c0,0 86.85,-366.17 476.5,-356.79 389.65,9.39 477.05,392.85 469.7,451.63 -7.35,58.78 -170.83,270.02 -484.94,242.47 -314.11,-27.55 -461.26,-337.32 -461.26,-337.32z"/>
  <g style="clip-path:url(#id2)">
   <image x="3169.1" y="2942.71" width="946.62" height="696.75" xlink:href="avatar_Images\avatar_ImgID2.png"/>
  </g>
  <g style="clip-path:url(#id3)">
   <image x="3169.1" y="2942.71" width="946.62" height="696.75" xlink:href="avatar_Images\avatar_ImgID3.png"/>
  </g>
  <path class="fil7" d="M4115.71 3299.68c0,0 -86.85,-366.17 -476.5,-356.79 -389.65,9.39 -477.05,392.85 -469.7,451.63 7.35,58.78 170.83,270.02 484.94,242.47 314.11,-27.55 461.26,-337.32 461.26,-337.32z"/>
  <path class="fil8" d="M3183.72 3308.97c0,0 61.26,-301.99 399.44,-361.98 357.81,-36.08 509.62,250.98 532.55,352.68 0,0 145.82,-6.37 189.62,-102.36 0,0 -54.05,61.51 -154.71,53.12 0,0 118.38,-41.1 137.02,-115.66 0,0 -82.95,77.35 -163.1,57.78 0,0 113.7,-48.46 115.57,-132.34 0,0 -96,78.29 -164.03,62.44 0,0 107.18,-47.53 111.84,-130.48 0,0 -64.31,65.24 -126.75,53.12 0,0 57.58,-41.43 70.7,-116.41 0,0 -93.73,76.86 -116.23,74.98 0,0 52.45,-80.26 59.62,-114.67 0,0 -63.81,74.56 -108.26,81.73 0,0 53.77,-60.94 60.22,-116.14 0,0 -51.62,76.71 -119.01,81.73 0,0 39.56,-40.3 46.35,-96.85 0,0 -67.86,81.43 -125.55,73.52 0,0 42.98,-32.8 53.16,-80.3 0,0 -48.64,53.16 -106.32,70.12 0,0 41.85,-36.19 36.19,-74.65 0,0 -24.88,45.24 -72.39,58.82 0,0 18.55,-12.29 15.05,-50.76 0,0 -25.18,40.56 -73.43,54.55 0,0 20.28,-20.98 25.18,-48.26 0,0 -32.87,45.46 -85.32,58.05 0,0 32.37,-30.53 34.29,-55.49 0,0 -43.2,47.05 -77.77,61.45 0,0 25.92,-24 29.76,-53.76 0,0 -45.13,59.52 -62.41,59.52 0,0 8.64,-4.8 11.52,-33.6 0,0 -14.66,30.98 -62.97,56.78 0,0 12.4,-17.68 13.47,-47.55 0,0 -33.36,59.95 -63.15,72.86 0,0 9.93,-7.94 16.88,-46.67 0,0 -41.71,51.63 -69.51,72.48 -27.8,20.85 -197.05,112.84 -207.55,322.19z"/>
  <path class="fil8" d="M2357.59 3307.37c0,0 -50.1,-292.58 -400.25,-362.08 -356.9,-45.89 -517.79,250.52 -531.73,352.78 0,0 -145.82,-6.37 -189.62,-102.36 0,0 54.05,61.51 154.71,53.12 0,0 -118.38,-41.1 -137.02,-115.66 0,0 82.95,77.35 163.1,57.78 0,0 -113.7,-48.46 -115.57,-132.34 0,0 96,78.29 164.03,62.44 0,0 -107.18,-47.53 -111.84,-130.48 0,0 64.31,65.24 126.75,53.12 0,0 -57.58,-41.43 -70.7,-116.41 0,0 93.73,76.86 116.23,74.98 0,0 -52.45,-80.26 -59.62,-114.67 0,0 63.81,74.56 108.26,81.73 0,0 -53.77,-60.94 -60.22,-116.14 0,0 51.62,76.71 119.01,81.73 0,0 -39.56,-40.3 -46.35,-96.85 0,0 67.86,81.43 125.55,73.52 0,0 -42.98,-32.8 -53.16,-80.3 0,0 48.64,53.16 106.32,70.12 0,0 -41.85,-36.19 -36.19,-74.65 0,0 24.88,45.24 72.39,58.82 0,0 -18.55,-12.29 -15.05,-50.76 0,0 25.18,40.56 73.43,54.55 0,0 -20.28,-20.98 -25.18,-48.26 0,0 32.87,45.46 85.32,58.05 0,0 -32.37,-30.53 -34.29,-55.49 0,0 43.2,47.05 77.77,61.45 0,0 -25.92,-24 -29.76,-53.76 0,0 45.13,59.52 62.41,59.52 0,0 -8.64,-4.8 -11.52,-33.6 0,0 14.66,30.98 62.97,56.78 0,0 -12.4,-17.68 -13.47,-47.55 0,0 33.36,59.95 63.15,72.86 0,0 -9.93,-7.94 -16.88,-46.67 0,0 41.71,51.63 69.51,72.48 27.8,20.85 197.05,112.84 207.55,322.19z"/>
  <g id="_1424014528416">
   <path class="fil9" d="M1379.67 2667.23c0,0 -17.26,-236.63 537.36,-273.61 0,0 456.01,2.47 409.18,224.31 -46.83,221.84 -212.3,91.39 -212.3,91.39 0,0 -139.79,-82.01 -257.21,-78.28 -117.42,3.73 -402.59,195.71 -477.03,36.19z"/>
   <path class="fil9" d="M3682.63 2385.52c0,0 441.57,6.91 484.2,294.72 9.32,244.17 -331.55,-46.76 -454.8,-46.6 -196.86,0.25 -372.79,167.75 -458.52,65.24 -24.31,-29.07 -30.99,-81.97 -33.59,-119.96 -6.5,-95.15 89.91,-160.45 462.71,-193.39z"/>
  </g>
  <g style="clip-path:url(#id4)">
   <polygon class="fil10" points="877.27,2651.34 4664.47,2651.34 4664.47,3929.86 877.27,3929.86 "/>
  </g>
  <g style="clip-path:url(#id5)">
  </g>
  <path id="_1" class="fil3 str0" d="M904.67 2759.82l204.94 -38.28c0,0 393.4,-108.76 799.29,-43.6 405.89,65.17 703.5,134.47 703.5,134.47 0,0 193.7,-17.45 322.08,6.92 0,0 605.16,-175.92 880.27,-167.71 275.11,8.21 689.84,86.23 689.84,86.23l129.82 22.75c0,0 46.96,160.73 23.48,234.77l-117.39 119.19c0,0 -16.56,744.09 -350.22,812.53l-886.55 2.76c0,0 -154.92,-35.93 -334.88,-558.92 0,0 -53.64,-305.46 -197.63,-299.87 -143.99,5.59 -197.11,229.27 -197.11,229.27 0,0 -103.23,492.12 -334.03,626.58l-931.82 1.06c0,0 -280.02,-124.72 -280.02,-614.56 0,0 -13.51,-178.63 -42.99,-210.07 -29.47,-31.44 -108,-88.34 -108,-88.34l27.4 -255.19zm962.34 73.17c0,0 558.36,17.16 569.57,227.34 11.21,210.18 -109.29,753.84 -434.37,798.68 -325.08,44.84 -560.48,-16.81 -658.56,-120.5 -98.08,-103.69 -170.51,-247.85 -145.59,-671.36 0,0 14.08,-220.48 259.79,-231.16 245.71,-10.68 409.17,-2.99 409.17,-2.99zm1810.53 8.52c0,0 -558.36,17.16 -569.57,227.34 -11.21,210.18 109.29,753.84 434.37,798.68 325.08,44.84 560.48,-16.81 658.56,-120.5 98.08,-103.69 170.51,-247.85 145.59,-671.36 0,0 -14.08,-220.48 -259.79,-231.16 -245.71,-10.68 -409.17,-2.99 -409.17,-2.99z"/>
  <g style="clip-path:url(#id6)">
   <path id="_2" class="fil3 str0" d="M877.27 2651.34l3787.2 1278.51m0 -1278.51l-3787.2 1278.51"/>
  </g>
  <g>
  </g>
  <g style="clip-path:url(#id7)">
   <g id="_1424014541136">
    <path class="fil11" d="M2437.65 3994.92c0,0 88.36,-207.46 215.14,-265.08 126.78,-57.63 -192.09,203.61 -142.14,288.13 49.94,84.52 453.32,34.58 453.32,34.58 0,0 -26.89,-192.09 -153.67,-284.29 -126.78,-92.2 195.93,-92.2 291.97,265.08l99.88 -7.68c0,0 -259.7,-351.22 -299.47,-536.77 -39.76,-185.56 -145.8,-225.32 -145.8,-225.32 0,0 -70.69,-53.02 -167.88,229.74 -97.2,282.75 -265.08,525.74 -265.08,525.74l-198.81 13.25c0,0 8.84,-70.69 53.02,-106.03 44.18,-35.34 207.65,-287.17 220.9,-326.93 13.25,-39.76 123.7,-384.37 123.7,-384.37 0,0 110.45,-194.39 154.63,-194.39 44.18,0 326.94,-17.67 322.52,53.02 -4.42,70.69 88.36,481.56 106.03,530.16 17.67,48.6 265.08,366.7 265.08,366.7l-366.7 181.14 -614.11 -30.93 47.45 -125.74z"/>
   </g>
  </g>
  <path class="fil3" d="M2240.09 3926.92l1044.18 -2.88c0,0 -157.15,-100.69 -311.11,-574.42 0,0 -63.74,-283.52 -201.1,-283.52 -137.36,0 -194.82,217.25 -194.82,217.25 0,0 -95,446 -337.14,643.57z"/>
  <path class="fil12" d="M877.27 3015l26.92 -250.71 124.29 -22.87c0,0 37.53,-168.88 90.75,-467.77 53.23,-298.89 103.2,-642.63 522.92,-709.92 419.73,-67.28 801.01,51.26 1131.02,44.86 330.01,-6.41 544.59,-72.22 786.83,-44.42 242.24,27.8 710.84,250.18 734.67,317.69 23.83,67.51 104.11,391.22 112.15,481.6 8.03,90.39 74.32,373.59 74.32,373.59l140.07 33.86 19.12 222.86 -114.53 125.67 29.45 12.4 51.14 -51.14c0,0 23.25,-52.69 65.09,-75.94l-4.65 -119.33 35.64 -127.08 44.27 -548.48c0,0 40.08,-216.91 73.19,-264.22 33.12,-47.31 94.94,-397.14 25.16,-576.15 0,0 158.2,-125.97 192.14,-210.14 33.94,-84.17 81.89,-189.38 59.31,-343.31 0,0 -1.72,-23.44 -8.61,-21.85 -6.89,1.59 -6.89,4.77 -15.89,33.38 -9.01,28.61 -84.55,204.61 -181.58,199.73 -97.03,-4.89 -148.93,3.95 -268.02,-105.48 -119.09,-109.43 -684.28,-871.25 -1462.08,-888.25 0,0 -535,-52.68 -778.85,-17.04 -243.85,35.64 -778.97,141.84 -993.96,356.83 -214.99,214.99 -232.73,424.2 -232.73,424.2 0,0 -80.27,-42.72 -167.98,-18.72 -87.72,24 -447.47,360.34 -340.82,1000.22 106.65,639.88 111.86,65.68 231.22,1235.93z"/>
  <g style="clip-path:url(#id8)">
   <g id="_1424014546032">
    <path id="_1_0" class="fil13" d="M659.76 1950.8l63.26 189.78c0,0 154.64,-653.7 660.73,-562.32 0,0 55.71,52.52 137.47,-0.81 81.77,-53.33 644.95,-699.5 1332.62,-509.8 687.67,189.7 1683.61,741.03 1956.31,367.55 0,0 -581.89,160 -1406.69,-372.94 -824.8,-532.95 -1808.21,317.23 -1808.21,317.23 0,0 -52.97,150.69 -103.44,147.53 -50.47,-3.15 -567.79,-324.9 -832.05,423.78z"/>
   </g>
  </g>
  <path class="fil3" d="M877.27 3015l26.92 -250.71 124.29 -22.87c0,0 37.53,-168.88 90.75,-467.77 53.23,-298.89 103.2,-642.63 522.92,-709.92 419.73,-67.28 801.01,51.26 1131.02,44.86 330.01,-6.41 544.59,-72.22 786.83,-44.42 242.24,27.8 710.84,250.18 734.67,317.69 23.83,67.51 104.11,391.22 112.15,481.6 8.03,90.39 74.32,373.59 74.32,373.59l140.07 33.86 19.12 222.86 -114.53 125.67 29.45 12.4 51.14 -51.14c0,0 23.25,-52.69 65.09,-75.94l-4.65 -119.33 35.64 -127.08 44.27 -548.48c0,0 40.08,-216.91 73.19,-264.22 33.12,-47.31 94.94,-397.14 25.16,-576.15 0,0 158.2,-125.97 192.14,-210.14 33.94,-84.17 81.89,-189.38 59.31,-343.31 0,0 -1.72,-23.44 -8.61,-21.85 -6.89,1.59 -6.89,4.77 -15.89,33.38 -9.01,28.61 -84.55,204.61 -181.58,199.73 -97.03,-4.89 -148.93,3.95 -268.02,-105.48 -119.09,-109.43 -684.28,-871.25 -1462.08,-888.25 0,0 -535,-52.68 -778.85,-17.04 -243.85,35.64 -778.97,141.84 -993.96,356.83 -214.99,214.99 -232.73,424.2 -232.73,424.2 0,0 -80.27,-42.72 -167.98,-18.72 -87.72,24 -447.47,360.34 -340.82,1000.22 106.65,639.88 111.86,65.68 231.22,1235.93z"/>
  <path class="fil14" d="M1919.84 2967.66c168.11,0 304.39,132.28 304.39,295.46 0,163.18 -136.28,295.46 -304.39,295.46 -168.11,0 -304.39,-132.28 -304.39,-295.46 0,-163.18 136.28,-295.46 304.39,-295.46z"/>
  <path class="fil15" d="M1919.84 3078.46c105.07,0 190.25,82.68 190.25,184.67 0,101.99 -85.18,184.67 -190.25,184.67 -105.07,0 -190.25,-82.68 -190.25,-184.67 0,-101.99 85.18,-184.67 190.25,-184.67z"/>
  <path class="fil7" d="M1832.73 3057.62c37.8,0 68.45,28.92 68.45,64.59 0,35.68 -30.65,64.59 -68.45,64.59 -37.8,0 -68.45,-28.92 -68.45,-64.59 0,-35.67 30.65,-64.59 68.45,-64.59z"/>
  <path class="fil16" d="M641.65 3159.84c13.04,3.73 277.03,288.5 277.03,288.5l162.06 352.06 -97.8 123.69 -225.32 0c0,0 -149.7,-519.71 -115.96,-764.25z"/>
  <path class="fil17" d="M938.29 3092.49c-19.02,-2.81 4.71,352.09 4.71,352.09 0,0 -123.53,-338.63 -257.7,-336.5 0,0 -72.41,-2.13 -6.39,85.19 66.02,87.32 200.2,200.2 247.05,408.91 46.85,208.72 27.69,293.91 27.69,293.91 0,0 -30.26,29.17 -0.21,29.38 30.06,0.21 416.13,6.3 396.34,2.45 -19.79,-3.84 -163.14,-77.6 -221.62,-255.78 -58.48,-178.18 -128.31,-536.75 -128.31,-536.75l-9.62 -27.41 -10.11 -9.9 -14.07 6.27 -27.76 -11.87z"/>
  <path class="fil16" d="M4891.73 3152.33c-13.04,3.73 -277.03,288.5 -277.03,288.5l-162.06 352.06 97.8 123.69 225.32 0c0,0 149.7,-519.71 115.96,-764.25z"/>
  <path class="fil17" d="M4595.08 3084.98c19.02,-2.81 -4.71,352.09 -4.71,352.09 0,0 123.53,-338.63 257.7,-336.5 0,0 72.41,-2.13 6.39,85.19 -66.02,87.32 -200.2,200.2 -247.05,408.91 -46.85,208.72 -27.69,293.91 -27.69,293.91 0,0 30.26,29.17 0.21,29.38 -30.06,0.21 -416.13,6.3 -396.34,2.45 19.79,-3.84 163.14,-77.6 221.62,-255.78 58.48,-178.18 128.31,-536.75 128.31,-536.75l9.62 -27.41 10.11 -9.9 14.07 6.27 27.76 -11.87z"/>
  <path class="fil18" d="M3611.93 2967.66c-168.11,0 -304.39,132.28 -304.39,295.46 0,163.18 136.28,295.46 304.39,295.46 168.11,0 304.39,-132.28 304.39,-295.46 0,-163.18 -136.28,-295.46 -304.39,-295.46z"/>
  <path class="fil15" d="M3611.93 3078.46c-105.07,0 -190.25,82.68 -190.25,184.67 0,101.99 85.18,184.67 190.25,184.67 105.07,0 190.25,-82.68 190.25,-184.67 0,-101.99 -85.18,-184.67 -190.25,-184.67z"/>
  <path class="fil7" d="M3699.03 3057.62c-37.8,0 -68.45,28.92 -68.45,64.59 0,35.68 30.65,64.59 68.45,64.59 37.8,0 68.45,-28.92 68.45,-64.59 0,-35.67 -30.65,-64.59 -68.45,-64.59z"/>
  <path class="fil19 str1" d="M3316.98 63.96c0,0 -902.37,-305.98 -1778.81,425.25 0,0 819.39,-611.95 1778.81,-425.25z"/>
  <path class="fil19 str1" d="M641.29 1360.42c0,0 233.46,-360.97 798.14,-117.85l-286.26 -443.12 230.07 394.02c0,0 -498.17,-213.58 -741.94,166.94z"/>
 </g>
</svg>
