<?xml version="1.0" standalone="no"?>
<!DOCTYPE svg PUBLIC "-//W3C//DTD SVG 20010904//EN"
 "http://www.w3.org/TR/2001/REC-SVG-20010904/DTD/svg10.dtd">
<svg version="1.0" xmlns="http://www.w3.org/2000/svg"
 width="500.000000pt" height="500.000000pt" viewBox="0 0 500.000000 500.000000"
 preserveAspectRatio="xMidYMid meet">

<g transform="translate(0.000000,500.000000) scale(0.100000,-0.100000)"
fill="#000000" stroke="none">
<path d="M2315 4105 c-166 -18 -326 -68 -408 -127 -55 -39 -103 -105 -119
-163 l-14 -50 -55 -3 c-66 -3 -90 -23 -138 -115 -54 -103 -66 -248 -31 -378
32 -117 50 -219 50 -279 0 -31 7 -82 15 -113 19 -75 19 -87 -4 -87 -27 0 -57
-29 -69 -68 -13 -38 2 -195 24 -257 15 -40 15 -40 9 -5 -21 124 -25 148 -25
173 0 15 5 27 10 27 19 0 70 -60 70 -83 0 -31 40 -189 51 -203 10 -12 576 -19
612 -8 19 6 72 105 107 201 27 76 53 105 88 101 28 -3 68 -53 79 -97 8 -37 72
-173 91 -194 15 -16 38 -18 309 -16 200 1 296 5 301 13 10 13 35 105 52 188 8
41 19 63 37 78 42 32 46 26 40 -52 l-5 -73 16 74 c12 61 13 83 3 120 -13 52
-44 84 -72 76 -24 -8 -25 13 -4 81 8 27 15 75 15 107 0 87 18 193 47 272 22
63 24 79 19 165 -6 94 -6 96 19 120 42 39 74 104 81 163 7 62 -8 86 -28 40
-29 -68 -70 -87 -135 -62 -15 5 -67 52 -115 104 -213 226 -385 313 -658 330
-52 3 -109 7 -125 9 -17 1 -79 -3 -140 -9z m160 -690 c110 1 248 5 306 9 l107
9 83 -39 c132 -60 161 -82 182 -139 32 -85 40 -168 27 -256 l-12 -79 -33 0
c-27 0 -37 6 -54 36 -51 85 -249 116 -366 57 -41 -22 -46 -32 -40 -78 l6 -40
-68 -14 c-110 -23 -168 -24 -246 -5 -39 9 -78 17 -85 17 -9 0 -11 11 -6 42 8
53 -15 78 -90 96 -134 34 -297 -10 -326 -87 -8 -19 -17 -24 -44 -24 -26 0 -35
4 -35 18 0 9 -3 28 -5 42 -2 14 -5 33 -5 43 -1 11 -6 15 -12 11 -7 -4 -9 0 -6
12 3 11 11 53 18 94 22 138 51 193 126 237 77 45 124 53 258 45 66 -4 210 -7
320 -7z m-352 -492 c-7 -2 -21 -2 -30 0 -10 3 -4 5 12 5 17 0 24 -2 18 -5z
m740 0 c-7 -2 -21 -2 -30 0 -10 3 -4 5 12 5 17 0 24 -2 18 -5z m-753 -80 c0
-5 -34 -7 -75 -6 -48 1 -75 -2 -75 -9 0 -7 -5 -6 -15 2 -12 10 -15 9 -15 -5 0
-14 -3 -15 -15 -5 -12 10 -15 10 -15 -3 0 -11 -5 -14 -16 -10 -13 5 -15 2 -10
-15 6 -17 4 -21 -8 -16 -11 4 -16 0 -16 -11 0 -9 -4 -14 -8 -11 -9 6 -42 -29
-42 -44 0 -6 -4 -10 -9 -10 -11 0 -2 77 11 103 18 34 67 46 191 47 64 0 117
-3 117 -7z m995 -7 c18 -8 38 -23 43 -33 15 -29 24 -103 12 -103 -5 0 -10 5
-10 11 0 7 -16 27 -35 46 -19 19 -35 39 -35 45 0 5 -7 8 -15 4 -9 -3 -15 1
-15 11 0 13 -3 13 -15 3 -12 -10 -15 -9 -15 5 0 14 -3 15 -15 5 -8 -7 -15 -8
-15 -2 0 5 -31 9 -75 8 -41 0 -75 2 -75 7 0 14 229 8 265 -7z m-879 -7 c24 -6
47 -16 50 -21 4 -6 -2 -7 -17 -2 -13 4 -49 13 -79 20 -37 8 -46 12 -27 13 16
1 48 -4 73 -10z m593 7 c-2 -2 -29 -9 -59 -14 -30 -6 -64 -14 -75 -18 -14 -5
-17 -4 -10 4 13 14 72 30 114 31 19 1 32 -1 30 -3z m-748 -46 c-111 -26 -136
-181 -38 -240 62 -38 152 -13 184 50 29 58 1 160 -48 175 -11 4 -18 9 -16 12
3 2 18 -2 34 -10 64 -34 129 -135 117 -184 -10 -43 -49 -115 -78 -146 -37 -40
-85 -57 -160 -57 -127 0 -211 32 -247 95 -18 32 -37 131 -21 106 8 -11 13 -7
26 18 9 17 21 32 26 32 6 1 15 2 20 3 6 0 19 19 29 41 31 69 98 115 166 114
l40 -1 -34 -8z m887 -9 c47 -24 77 -56 97 -104 8 -20 19 -36 23 -36 29 5 52
-4 57 -21 4 -11 11 -18 16 -15 12 8 11 -31 -2 -80 -24 -87 -116 -135 -258
-135 -92 0 -147 24 -186 80 -29 42 -76 160 -74 188 1 10 4 7 8 -8 7 -24 8 -24
25 15 9 22 29 53 44 68 27 29 80 62 88 54 2 -2 -7 -10 -21 -17 -30 -16 -55
-67 -55 -112 0 -67 62 -128 130 -128 149 0 178 218 35 259 l-30 9 33 1 c18 1
49 -8 70 -18z m-1317 -32 c25 -26 29 -39 29 -85 0 -30 -1 -54 -3 -54 -1 0 -20
25 -42 55 -22 30 -46 55 -52 55 -18 0 -16 20 4 42 22 25 30 23 64 -13z m1731
14 c23 -21 23 -40 -1 -48 -11 -3 -35 -29 -53 -58 -32 -51 -33 -52 -36 -23 -6
47 7 92 33 120 28 31 33 31 57 9z m-1295 -39 c3 -8 -2 -23 -11 -32 -15 -15
-17 -15 -32 0 -21 21 -11 48 16 48 11 0 23 -7 27 -16z m747 0 c9 -24 -23 -57
-41 -43 -14 12 -18 41 -6 52 12 13 41 7 47 -9z m-507 -76 c-3 -7 -5 -2 -5 12
0 14 2 19 5 13 2 -7 2 -19 0 -25z m-148 -84 c-13 -16 -39 -19 -39 -4 0 12 32
30 43 23 4 -3 3 -11 -4 -19z m771 22 c0 -13 -34 -36 -52 -36 -20 0 -21 1 -3
20 16 17 55 28 55 16z"/>
<path d="M3373 2458 c-7 -29 -15 -63 -19 -75 -5 -19 -3 -23 17 -23 18 0 21 2
10 9 -12 8 -13 17 -2 64 8 30 12 60 10 66 -3 7 -10 -11 -16 -41z"/>
<path d="M1583 2398 c2 -15 -1 -29 -7 -32 -6 -2 -3 -5 7 -5 19 -1 21 13 6 44
-8 17 -9 16 -6 -7z"/>
<path d="M1430 2335 c-7 -9 -11 -17 -9 -20 3 -2 10 5 17 15 14 24 10 26 -8 5z"/>
<path d="M3505 2330 c10 -11 20 -20 23 -20 3 0 -3 9 -13 20 -10 11 -20 20 -23
20 -3 0 3 -9 13 -20z"/>
<path d="M1412 2265 c0 -16 2 -22 5 -12 2 9 2 23 0 30 -3 6 -5 -1 -5 -18z"/>
<path d="M3515 2087 c-4 -64 -5 -121 -3 -129 3 -7 8 43 12 111 4 67 5 125 3
128 -3 2 -8 -47 -12 -110z"/>
<path d="M1422 2135 c0 -16 2 -22 5 -12 2 9 2 23 0 30 -3 6 -5 -1 -5 -18z"/>
<path d="M1427 1965 c3 -66 7 -122 9 -124 7 -7 2 121 -6 184 -6 41 -7 22 -3
-60z"/>
<path d="M3503 1850 c0 -30 2 -43 4 -27 2 15 2 39 0 55 -2 15 -4 2 -4 -28z"/>
<path d="M1443 1745 c0 -33 2 -45 4 -27 2 18 2 45 0 60 -2 15 -4 0 -4 -33z"/>
<path d="M3496 1713 c-8 -31 -4 -339 4 -318 7 17 9 15 9 -10 1 -17 6 -36 13
-43 9 -9 8 -12 -5 -12 -13 0 -15 -7 -11 -32 4 -25 3 -30 -5 -18 -8 11 -9 6 -4
-20 3 -19 9 -37 14 -40 4 -3 10 -30 14 -61 7 -53 6 -56 -17 -62 -43 -12 -48
-9 -41 25 6 32 6 32 -18 17 -13 -9 -35 -19 -49 -22 -14 -4 -441 -4 -949 0
-896 6 -925 7 -944 26 -25 25 -41 10 -28 -26 10 -27 10 -27 -37 -27 -64 0 -79
11 -64 45 7 15 15 68 19 118 3 51 10 97 14 103 5 6 8 20 8 30 -3 33 2 80 8 67
14 -36 23 -2 23 88 0 102 0 102 -19 78 -48 -62 -132 -289 -146 -397 -2 -13 -9
-46 -15 -74 -8 -30 -9 -53 -3 -59 5 -5 481 -8 1199 -7 l1189 3 -1 25 c-4 64
-29 212 -44 260 -26 80 -65 170 -87 203 -23 33 -25 44 -20 97 7 59 3 77 -7 43z
m-2066 -213 c0 -5 -5 -10 -11 -10 -5 0 -7 5 -4 10 3 6 8 10 11 10 2 0 4 -4 4
-10z m2097 -232 c-3 -7 -5 -2 -5 12 0 14 2 19 5 13 2 -7 2 -19 0 -25z"/>
<path d="M1412 1300 c0 -19 2 -27 5 -17 2 9 2 25 0 35 -3 9 -5 1 -5 -18z"/>
</g>
</svg>
