<?xml version="1.0" encoding="UTF-8"?>
<!DOCTYPE svg PUBLIC "-//W3C//DTD SVG 1.1//EN" "http://www.w3.org/Graphics/SVG/1.1/DTD/svg11.dtd">
<svg xmlns="http://www.w3.org/2000/svg" version="1.1" width="500px" height="500px" style="shape-rendering:geometricPrecision; text-rendering:geometricPrecision; image-rendering:optimizeQuality; fill-rule:evenodd; clip-rule:evenodd" xmlns:xlink="http://www.w3.org/1999/xlink">
<g><path style="opacity:0.631" fill="#22150f" d="M 299.5,101.5 C 298.391,101.443 297.391,101.11 296.5,100.5C 290.94,97.054 284.94,94.7206 278.5,93.5C 273.752,91.8625 268.752,90.8625 263.5,90.5C 251.011,89.5046 238.344,89.1713 225.5,89.5C 226.609,88.71 227.942,88.21 229.5,88C 249.557,86.3067 268.891,88.3067 287.5,94C 292.036,95.7615 296.036,98.2615 299.5,101.5 Z"/></g>
<g><path style="opacity:0.671" fill="#20160f" d="M 223.5,89.5 C 223.5,89.8333 223.5,90.1667 223.5,90.5C 219.899,91.4633 216.233,92.13 212.5,92.5C 215.799,90.5165 219.466,89.5165 223.5,89.5 Z"/></g>
<g><path style="opacity:1" fill="#765a4e" d="M 263.5,90.5 C 268.752,90.8625 273.752,91.8625 278.5,93.5C 278.389,94.1174 278.056,94.6174 277.5,95C 279.556,95.3108 281.556,95.8108 283.5,96.5C 284.59,97.3914 284.59,98.3914 283.5,99.5C 284.025,100.192 284.692,100.692 285.5,101C 284.978,101.561 284.645,102.228 284.5,103C 285.9,105.866 286.9,108.866 287.5,112C 287.385,113.895 286.718,115.562 285.5,117C 286.167,117.333 286.833,117.667 287.5,118C 286.299,118.903 285.465,120.069 285,121.5C 283.352,123.028 281.352,123.695 279,123.5C 272.284,121.889 265.451,120.889 258.5,120.5C 258.5,120.167 258.5,119.833 258.5,119.5C 252.893,118.117 247.059,117.45 241,117.5C 235.483,117.914 229.983,118.08 224.5,118C 222.862,115.867 222.029,113.367 222,110.5C 219.306,107.561 216.473,104.728 213.5,102C 214.942,101.623 215.942,100.79 216.5,99.5C 231.18,92.2986 246.847,89.2986 263.5,90.5 Z"/></g>
<g><path style="opacity:1" fill="#33231c" d="M 212.5,92.5 C 208.21,94.4906 203.876,96.4906 199.5,98.5C 197.435,98.5172 195.435,98.8505 193.5,99.5C 199.009,95.3114 205.343,92.978 212.5,92.5 Z"/></g>
<g><path style="opacity:1" fill="#654a3f" d="M 223.5,90.5 C 227.182,90.3347 230.848,90.5014 234.5,91C 220.608,93.3995 208.441,99.2328 198,108.5C 197.995,105.771 196.829,103.771 194.5,102.5C 196.419,101.388 198.086,100.054 199.5,98.5C 203.876,96.4906 208.21,94.4906 212.5,92.5C 216.233,92.13 219.899,91.4633 223.5,90.5 Z"/></g>
<g><path style="opacity:1" fill="#6d5145" d="M 216.5,99.5 C 215.942,100.79 214.942,101.623 213.5,102C 216.473,104.728 219.306,107.561 222,110.5C 222.029,113.367 222.862,115.867 224.5,118C 229.983,118.08 235.483,117.914 241,117.5C 247.059,117.45 252.893,118.117 258.5,119.5C 249.143,119.168 239.81,119.502 230.5,120.5C 225.29,122.313 219.956,123.146 214.5,123C 210.757,118.228 206.757,113.561 202.5,109C 206.322,104.589 210.988,101.422 216.5,99.5 Z"/></g>
<g><path style="opacity:0.153" fill="#221410" d="M 299.5,101.5 C 304.603,103.049 308.603,106.049 311.5,110.5C 307.462,107.488 303.462,104.488 299.5,101.5 Z"/></g>
<g><path style="opacity:1" fill="#594033" d="M 223.5,90.5 C 223.5,90.1667 223.5,89.8333 223.5,89.5C 224.167,89.5 224.833,89.5 225.5,89.5C 238.344,89.1713 251.011,89.5046 263.5,90.5C 246.847,89.2986 231.18,92.2986 216.5,99.5C 210.988,101.422 206.322,104.589 202.5,109C 206.757,113.561 210.757,118.228 214.5,123C 219.956,123.146 225.29,122.313 230.5,120.5C 239.81,119.502 249.143,119.168 258.5,119.5C 258.5,119.833 258.5,120.167 258.5,120.5C 262.142,121.607 265.809,122.607 269.5,123.5C 257.237,121.742 244.904,121.242 232.5,122C 226.636,122.623 221.303,124.456 216.5,127.5C 213.656,128.058 210.822,128.725 208,129.5C 206.175,129.057 204.342,128.723 202.5,128.5C 202.785,126.712 202.452,125.045 201.5,123.5C 198.58,121.167 196.247,118.333 194.5,115C 191.584,114.951 190.584,113.784 191.5,111.5C 190.885,109.884 189.885,108.551 188.5,107.5C 189.5,105.833 190.833,104.5 192.5,103.5C 193.246,102.264 193.579,100.93 193.5,99.5C 195.435,98.8505 197.435,98.5172 199.5,98.5C 198.086,100.054 196.419,101.388 194.5,102.5C 196.829,103.771 197.995,105.771 198,108.5C 208.441,99.2328 220.608,93.3995 234.5,91C 230.848,90.5014 227.182,90.3347 223.5,90.5 Z"/></g>
<g><path style="opacity:1" fill="#694d41" d="M 278.5,93.5 C 284.94,94.7206 290.94,97.054 296.5,100.5C 296.5,101.167 296.5,101.833 296.5,102.5C 294.661,103.508 293.328,105.008 292.5,107C 293.848,108.574 294.514,110.407 294.5,112.5C 293.749,117.259 292.749,121.925 291.5,126.5C 287.833,126.5 284.167,126.5 280.5,126.5C 277.112,124.882 273.446,123.882 269.5,123.5C 265.809,122.607 262.142,121.607 258.5,120.5C 265.451,120.889 272.284,121.889 279,123.5C 281.352,123.695 283.352,123.028 285,121.5C 285.465,120.069 286.299,118.903 287.5,118C 286.833,117.667 286.167,117.333 285.5,117C 286.718,115.562 287.385,113.895 287.5,112C 286.9,108.866 285.9,105.866 284.5,103C 284.645,102.228 284.978,101.561 285.5,101C 284.692,100.692 284.025,100.192 283.5,99.5C 284.59,98.3914 284.59,97.3914 283.5,96.5C 281.556,95.8108 279.556,95.3108 277.5,95C 278.056,94.6174 278.389,94.1174 278.5,93.5 Z"/></g>
<g><path style="opacity:1" fill="#5b4135" d="M 296.5,102.5 C 300.652,105.125 304.152,108.458 307,112.5C 311.067,111.071 312.234,112.404 310.5,116.5C 309.522,116.023 308.689,115.357 308,114.5C 307.833,114.833 307.667,115.167 307.5,115.5C 310.04,118.53 309.54,121.197 306,123.5C 305.667,123.167 305.333,122.833 305,122.5C 300.121,123.878 296.621,126.878 294.5,131.5C 290.148,130.439 285.815,129.272 281.5,128C 280.944,127.617 280.611,127.117 280.5,126.5C 284.167,126.5 287.833,126.5 291.5,126.5C 292.749,121.925 293.749,117.259 294.5,112.5C 294.514,110.407 293.848,108.574 292.5,107C 293.328,105.008 294.661,103.508 296.5,102.5 Z"/></g>
<g><path style="opacity:1" fill="#2c1a10" d="M 180.5,112.5 C 179.83,115.934 180.497,119.268 182.5,122.5C 182.855,126.897 184.688,130.897 188,134.5C 187.988,137.649 188.821,140.816 190.5,144C 190.167,144.833 189.833,145.667 189.5,146.5C 189.167,146.333 188.833,146.167 188.5,146C 185.639,142.206 182.973,138.373 180.5,134.5C 180.167,134.5 179.833,134.5 179.5,134.5C 176.041,132.134 173.374,128.968 171.5,125C 169.288,124.211 167.288,124.378 165.5,125.5C 163.5,127.167 161.5,128.833 159.5,130.5C 162.606,123.777 167.94,120.943 175.5,122C 176.742,118.552 178.408,115.385 180.5,112.5 Z"/></g>
<g><path style="opacity:1" fill="#342115" d="M 191.5,100.5 C 187.315,103.523 183.982,107.357 181.5,112C 183.037,114.28 184.203,116.78 185,119.5C 186.512,120.257 187.846,121.257 189,122.5C 192.079,127.256 195.579,131.756 199.5,136C 204.532,136.323 208.865,134.657 212.5,131C 216.473,130.72 220.306,129.886 224,128.5C 224.833,128.667 225.667,128.833 226.5,129C 225.304,129.654 225.304,130.154 226.5,130.5C 228.444,129.811 230.444,129.311 232.5,129C 241.5,128.333 250.5,128.333 259.5,129C 261.833,130.043 264.166,130.876 266.5,131.5C 252.465,128.669 238.465,128.835 224.5,132C 220.5,133.667 216.5,135.333 212.5,137C 208.858,140.487 204.858,143.487 200.5,146C 198.549,147.734 197.549,149.901 197.5,152.5C 201.175,152.5 203.841,150.833 205.5,147.5C 209.247,147.608 212.914,147.108 216.5,146C 215,143.833 215.5,142.333 218,141.5C 219.898,144.689 222.731,146.189 226.5,146C 225.115,148.585 225.782,150.585 228.5,152C 227.833,152.333 227.167,152.667 226.5,153C 227.624,153.249 228.624,153.749 229.5,154.5C 237.807,155.498 246.14,155.831 254.5,155.5C 256.5,155.5 258.5,155.5 260.5,155.5C 261.5,155.5 262.5,155.5 263.5,155.5C 245.058,157.218 226.558,156.551 208,153.5C 204.85,153.36 202.017,154.027 199.5,155.5C 196.673,155.584 194.006,156.25 191.5,157.5C 192.598,156.603 192.598,155.77 191.5,155C 188.896,154.61 186.562,153.776 184.5,152.5C 185.833,152.5 187.167,152.5 188.5,152.5C 187.948,147.742 185.781,143.742 182,140.5C 181.495,138.482 180.995,136.482 180.5,134.5C 182.973,138.373 185.639,142.206 188.5,146C 188.833,146.167 189.167,146.333 189.5,146.5C 189.833,145.667 190.167,144.833 190.5,144C 188.821,140.816 187.988,137.649 188,134.5C 184.688,130.897 182.855,126.897 182.5,122.5C 180.497,119.268 179.83,115.934 180.5,112.5C 182.098,106.57 185.765,102.57 191.5,100.5 Z"/></g>
<g><path style="opacity:1" fill="#422e22" d="M 193.5,99.5 C 193.579,100.93 193.246,102.264 192.5,103.5C 190.833,104.5 189.5,105.833 188.5,107.5C 189.885,108.551 190.885,109.884 191.5,111.5C 190.584,113.784 191.584,114.951 194.5,115C 196.247,118.333 198.58,121.167 201.5,123.5C 202.452,125.045 202.785,126.712 202.5,128.5C 204.342,128.723 206.175,129.057 208,129.5C 210.822,128.725 213.656,128.058 216.5,127.5C 220.236,126.801 223.903,125.801 227.5,124.5C 228.894,124.621 230.228,124.954 231.5,125.5C 243.765,123.299 256.098,123.132 268.5,125C 282.904,129.237 296.238,135.571 308.5,144C 315.367,146.439 322.367,148.273 329.5,149.5C 332.861,149.888 335.694,148.888 338,146.5C 338.671,147.252 339.504,147.586 340.5,147.5C 339.097,148.931 337.431,150.098 335.5,151C 334.207,151.49 332.873,151.657 331.5,151.5C 326.821,151.666 322.155,151.499 317.5,151C 306.668,145.219 295.668,139.719 284.5,134.5C 278.656,132.539 272.656,131.539 266.5,131.5C 264.166,130.876 261.833,130.043 259.5,129C 250.5,128.333 241.5,128.333 232.5,129C 230.444,129.311 228.444,129.811 226.5,130.5C 225.304,130.154 225.304,129.654 226.5,129C 225.667,128.833 224.833,128.667 224,128.5C 220.306,129.886 216.473,130.72 212.5,131C 208.865,134.657 204.532,136.323 199.5,136C 195.579,131.756 192.079,127.256 189,122.5C 187.846,121.257 186.512,120.257 185,119.5C 184.203,116.78 183.037,114.28 181.5,112C 183.982,107.357 187.315,103.523 191.5,100.5C 191.842,99.6618 192.508,99.3284 193.5,99.5 Z"/></g>
<g><path style="opacity:1" fill="#382921" d="M 311.5,110.5 C 312.583,110.539 313.583,110.873 314.5,111.5C 319.545,117.206 324.545,122.873 329.5,128.5C 328.417,128.461 327.417,128.127 326.5,127.5C 326.704,128.529 326.204,129.529 325,130.5C 324.333,129.167 323.667,129.167 323,130.5C 322.794,125.092 320.294,121.092 315.5,118.5C 315.833,117.833 316.167,117.167 316.5,116.5C 314.81,114.481 313.144,112.481 311.5,110.5 Z"/></g>
<g><path style="opacity:0.984" fill="#261b14" d="M 344.5,145.5 C 347.889,140.375 349.889,134.708 350.5,128.5C 350.333,127.5 350.167,126.5 350,125.5C 348.629,128.266 346.796,130.599 344.5,132.5C 345.38,129.738 346.546,127.071 348,124.5C 349.011,123.663 350.178,123.33 351.5,123.5C 352.249,130.221 351.082,136.554 348,142.5C 346.961,143.71 345.794,144.71 344.5,145.5 Z"/></g>
<g><path style="opacity:1" fill="#4f382b" d="M 296.5,100.5 C 297.391,101.11 298.391,101.443 299.5,101.5C 303.462,104.488 307.462,107.488 311.5,110.5C 313.144,112.481 314.81,114.481 316.5,116.5C 316.167,117.167 315.833,117.833 315.5,118.5C 320.294,121.092 322.794,125.092 323,130.5C 323.667,129.167 324.333,129.167 325,130.5C 326.204,129.529 326.704,128.529 326.5,127.5C 327.417,128.127 328.417,128.461 329.5,128.5C 330.219,130.888 331.885,132.388 334.5,133C 338.027,133.808 341.36,133.641 344.5,132.5C 346.796,130.599 348.629,128.266 350,125.5C 350.167,126.5 350.333,127.5 350.5,128.5C 349.889,134.708 347.889,140.375 344.5,145.5C 342.517,145.157 341.183,145.824 340.5,147.5C 339.504,147.586 338.671,147.252 338,146.5C 335.694,148.888 332.861,149.888 329.5,149.5C 322.367,148.273 315.367,146.439 308.5,144C 296.238,135.571 282.904,129.237 268.5,125C 256.098,123.132 243.765,123.299 231.5,125.5C 230.228,124.954 228.894,124.621 227.5,124.5C 223.903,125.801 220.236,126.801 216.5,127.5C 221.303,124.456 226.636,122.623 232.5,122C 244.904,121.242 257.237,121.742 269.5,123.5C 273.446,123.882 277.112,124.882 280.5,126.5C 280.611,127.117 280.944,127.617 281.5,128C 285.815,129.272 290.148,130.439 294.5,131.5C 296.621,126.878 300.121,123.878 305,122.5C 305.333,122.833 305.667,123.167 306,123.5C 309.54,121.197 310.04,118.53 307.5,115.5C 307.667,115.167 307.833,114.833 308,114.5C 308.689,115.357 309.522,116.023 310.5,116.5C 312.234,112.404 311.067,111.071 307,112.5C 304.152,108.458 300.652,105.125 296.5,102.5C 296.5,101.833 296.5,101.167 296.5,100.5 Z"/></g>
<g><path style="opacity:1" fill="#1f0d03" d="M 266.5,131.5 C 276.897,135.203 286.897,140.369 296.5,147C 303.412,147.636 310.079,149.303 316.5,152C 321.684,152.816 326.684,152.65 331.5,151.5C 332.873,151.657 334.207,151.49 335.5,151C 337.431,150.098 339.097,148.931 340.5,147.5C 341.183,145.824 342.517,145.157 344.5,145.5C 342.539,147.292 341.205,149.458 340.5,152C 341.567,158.473 341.734,164.973 341,171.5C 339.391,176.823 337.891,182.156 336.5,187.5C 335.566,186.432 335.232,185.099 335.5,183.5C 335.5,181.833 335.5,180.167 335.5,178.5C 336.578,176.461 337.578,174.294 338.5,172C 338.167,171.667 337.833,171.333 337.5,171C 339.673,167.14 340.673,162.973 340.5,158.5C 334.177,157.04 329.844,159.207 327.5,165C 321.965,165.369 316.631,165.536 311.5,165.5C 306.198,157.942 298.865,153.942 289.5,153.5C 284.684,152.674 279.684,152.174 274.5,152C 275.927,149.631 277.761,149.131 280,150.5C 280.692,149.975 281.192,149.308 281.5,148.5C 279.577,147.692 277.577,147.192 275.5,147C 276.089,145.127 275.422,143.46 273.5,142C 269.031,138.28 265.365,138.78 262.5,143.5C 263.788,146.428 263.121,148.928 260.5,151C 260.736,152.451 260.736,153.951 260.5,155.5C 258.5,155.5 256.5,155.5 254.5,155.5C 255.136,150.676 255.803,145.843 256.5,141C 254.859,139.354 255.193,138.354 257.5,138C 256.377,136.956 255.044,136.29 253.5,136C 239.813,133.72 226.48,135.387 213.5,141C 210.473,142.843 207.807,145.009 205.5,147.5C 203.841,150.833 201.175,152.5 197.5,152.5C 197.549,149.901 198.549,147.734 200.5,146C 204.858,143.487 208.858,140.487 212.5,137C 216.5,135.333 220.5,133.667 224.5,132C 238.465,128.835 252.465,128.669 266.5,131.5 Z"/></g>
<g><path style="opacity:0.047" fill="#1c100a" d="M 329.5,128.5 C 333.847,131.993 338.847,133.327 344.5,132.5C 341.36,133.641 338.027,133.808 334.5,133C 331.885,132.388 330.219,130.888 329.5,128.5 Z"/></g>
<g><path style="opacity:1" fill="#3d2a1e" d="M 165.5,125.5 C 165.833,126.167 166.167,126.833 166.5,127.5C 166.167,128.167 165.833,128.833 165.5,129.5C 161.592,132.095 159.925,135.762 160.5,140.5C 163.799,139.624 167.132,139.457 170.5,140C 167.618,141.52 164.618,142.853 161.5,144C 160.167,145 160.167,146 161.5,147C 165.368,148.011 169.034,149.511 172.5,151.5C 176.318,151.33 180.318,151.33 184.5,151.5C 185.204,147.162 183.87,143.662 180.5,141C 179.713,138.901 179.38,136.734 179.5,134.5C 179.833,134.5 180.167,134.5 180.5,134.5C 180.995,136.482 181.495,138.482 182,140.5C 185.781,143.742 187.948,147.742 188.5,152.5C 187.167,152.5 185.833,152.5 184.5,152.5C 176.45,151.496 169.45,153.496 163.5,158.5C 162.448,158.649 161.448,158.483 160.5,158C 159.167,157.333 159.167,156.667 160.5,156C 157.808,155.129 155.808,153.629 154.5,151.5C 155.123,149.289 156.123,147.289 157.5,145.5C 156.689,144.784 156.022,143.95 155.5,143C 157.177,140.453 157.844,137.62 157.5,134.5C 157.229,132.62 157.896,131.287 159.5,130.5C 161.5,128.833 163.5,127.167 165.5,125.5 Z"/></g>
<g><path style="opacity:1" fill="#2f1d13" d="M 266.5,131.5 C 272.656,131.539 278.656,132.539 284.5,134.5C 295.668,139.719 306.668,145.219 317.5,151C 322.155,151.499 326.821,151.666 331.5,151.5C 326.684,152.65 321.684,152.816 316.5,152C 310.079,149.303 303.412,147.636 296.5,147C 286.897,140.369 276.897,135.203 266.5,131.5 Z"/></g>
<g><path style="opacity:1" fill="#29170b" d="M 254.5,155.5 C 246.14,155.831 237.807,155.498 229.5,154.5C 228.624,153.749 227.624,153.249 226.5,153C 227.167,152.667 227.833,152.333 228.5,152C 225.782,150.585 225.115,148.585 226.5,146C 222.731,146.189 219.898,144.689 218,141.5C 215.5,142.333 215,143.833 216.5,146C 212.914,147.108 209.247,147.608 205.5,147.5C 207.807,145.009 210.473,142.843 213.5,141C 226.48,135.387 239.813,133.72 253.5,136C 255.044,136.29 256.377,136.956 257.5,138C 255.193,138.354 254.859,139.354 256.5,141C 255.803,145.843 255.136,150.676 254.5,155.5 Z"/></g>
<g><path style="opacity:1" fill="#5e4438" d="M 166.5,127.5 C 168.467,127.261 170.301,127.594 172,128.5C 176.873,137.811 174.04,141.144 163.5,138.5C 163.756,135.402 164.422,132.402 165.5,129.5C 165.833,128.833 166.167,128.167 166.5,127.5 Z"/></g>
<g><path style="opacity:1" fill="#281508" d="M 289.5,153.5 C 285.154,153.334 280.821,153.501 276.5,154C 275.584,154.278 274.918,154.778 274.5,155.5C 270.833,155.5 267.167,155.5 263.5,155.5C 262.5,155.5 261.5,155.5 260.5,155.5C 260.736,153.951 260.736,152.451 260.5,151C 263.121,148.928 263.788,146.428 262.5,143.5C 265.365,138.78 269.031,138.28 273.5,142C 275.422,143.46 276.089,145.127 275.5,147C 277.577,147.192 279.577,147.692 281.5,148.5C 281.192,149.308 280.692,149.975 280,150.5C 277.761,149.131 275.927,149.631 274.5,152C 279.684,152.174 284.684,152.674 289.5,153.5 Z"/></g>
<g><path style="opacity:1" fill="#50392c" d="M 179.5,134.5 C 179.38,136.734 179.713,138.901 180.5,141C 183.87,143.662 185.204,147.162 184.5,151.5C 180.318,151.33 176.318,151.33 172.5,151.5C 169.034,149.511 165.368,148.011 161.5,147C 160.167,146 160.167,145 161.5,144C 164.618,142.853 167.618,141.52 170.5,140C 167.132,139.457 163.799,139.624 160.5,140.5C 159.925,135.762 161.592,132.095 165.5,129.5C 164.422,132.402 163.756,135.402 163.5,138.5C 174.04,141.144 176.873,137.811 172,128.5C 170.301,127.594 168.467,127.261 166.5,127.5C 166.167,126.833 165.833,126.167 165.5,125.5C 167.288,124.378 169.288,124.211 171.5,125C 173.374,128.968 176.041,132.134 179.5,134.5 Z"/></g>
<g><path style="opacity:1" fill="#69432a" d="M 263.5,155.5 C 267.167,155.5 270.833,155.5 274.5,155.5C 274.5,155.833 274.5,156.167 274.5,156.5C 270.821,156.724 267.154,157.058 263.5,157.5C 242.13,157.766 220.797,157.099 199.5,155.5C 202.017,154.027 204.85,153.36 208,153.5C 226.558,156.551 245.058,157.218 263.5,155.5 Z"/></g>
<g><path style="opacity:1" fill="#845a3f" d="M 199.5,155.5 C 220.797,157.099 242.13,157.766 263.5,157.5C 263.5,157.833 263.5,158.167 263.5,158.5C 249.833,158.5 236.167,158.5 222.5,158.5C 219.038,157.518 215.371,157.185 211.5,157.5C 207.019,156.352 202.352,156.185 197.5,157C 194.294,158.769 190.961,160.269 187.5,161.5C 188.167,160.5 188.833,159.5 189.5,158.5C 189.842,157.662 190.508,157.328 191.5,157.5C 194.006,156.25 196.673,155.584 199.5,155.5 Z"/></g>
<g><path style="opacity:1" fill="#271509" d="M 153.5,146.5 C 152.62,153.945 153.787,160.945 157,167.5C 158.581,164.084 160.748,161.084 163.5,158.5C 169.45,153.496 176.45,151.496 184.5,152.5C 186.562,153.776 188.896,154.61 191.5,155C 192.598,155.77 192.598,156.603 191.5,157.5C 190.508,157.328 189.842,157.662 189.5,158.5C 179.212,156.65 170.712,159.65 164,167.5C 162.991,169.025 162.491,170.692 162.5,172.5C 161.203,174.371 160.203,176.371 159.5,178.5C 157.78,174.507 155.78,170.84 153.5,167.5C 152.167,160.5 152.167,153.5 153.5,146.5 Z"/></g>
<g><path style="opacity:1" fill="#8f6242" d="M 274.5,156.5 C 274.5,156.167 274.5,155.833 274.5,155.5C 281.175,155.334 287.842,155.5 294.5,156C 300.205,159.406 305.872,162.906 311.5,166.5C 312.167,166.5 312.5,166.833 312.5,167.5C 312.5,167.833 312.5,168.167 312.5,168.5C 308.832,165.819 304.832,163.819 300.5,162.5C 297.726,160.936 295.059,159.103 292.5,157C 286.509,156.501 280.509,156.334 274.5,156.5 Z"/></g>
<g><path style="opacity:1" fill="#301f16" d="M 157.5,134.5 C 157.844,137.62 157.177,140.453 155.5,143C 156.022,143.95 156.689,144.784 157.5,145.5C 156.123,147.289 155.123,149.289 154.5,151.5C 155.808,153.629 157.808,155.129 160.5,156C 159.167,156.667 159.167,157.333 160.5,158C 161.448,158.483 162.448,158.649 163.5,158.5C 160.748,161.084 158.581,164.084 157,167.5C 153.787,160.945 152.62,153.945 153.5,146.5C 153.466,141.931 154.799,137.931 157.5,134.5 Z"/></g>
<g><path style="opacity:1" fill="#6a452c" d="M 289.5,153.5 C 298.865,153.942 306.198,157.942 311.5,165.5C 311.5,165.833 311.5,166.167 311.5,166.5C 305.872,162.906 300.205,159.406 294.5,156C 287.842,155.5 281.175,155.334 274.5,155.5C 274.918,154.778 275.584,154.278 276.5,154C 280.821,153.501 285.154,153.334 289.5,153.5 Z"/></g>
<g><path style="opacity:1" fill="#27160b" d="M 335.5,178.5 C 334.535,175.074 332.868,171.907 330.5,169C 324.485,168.576 318.485,168.076 312.5,167.5C 312.5,166.833 312.167,166.5 311.5,166.5C 311.5,166.167 311.5,165.833 311.5,165.5C 316.631,165.536 321.965,165.369 327.5,165C 329.844,159.207 334.177,157.04 340.5,158.5C 340.673,162.973 339.673,167.14 337.5,171C 337.833,171.333 338.167,171.667 338.5,172C 337.578,174.294 336.578,176.461 335.5,178.5 Z"/></g>
<g><path style="opacity:1" fill="#d3a685" d="M 204.5,157.5 C 206.833,157.5 209.167,157.5 211.5,157.5C 215.371,157.185 219.038,157.518 222.5,158.5C 217.821,158.334 213.155,158.501 208.5,159C 204.544,169.327 204.544,179.66 208.5,190C 211.818,190.879 215.152,191.713 218.5,192.5C 218.709,193.086 219.043,193.586 219.5,194C 217.527,194.495 215.527,194.662 213.5,194.5C 209.154,194.666 204.821,194.499 200.5,194C 201.535,192.493 201.368,190.993 200,189.5C 198.848,179.903 198.348,170.403 198.5,161C 200.758,160.124 202.758,158.957 204.5,157.5 Z"/></g>
<g><path style="opacity:1" fill="#c09171" d="M 274.5,156.5 C 280.509,156.334 286.509,156.501 292.5,157C 295.059,159.103 297.726,160.936 300.5,162.5C 301.406,163.965 302.739,164.965 304.5,165.5C 305.766,175.974 305.099,186.307 302.5,196.5C 304.242,198.563 305.909,200.563 307.5,202.5C 300.092,197.146 291.759,194.812 282.5,195.5C 285.625,194.521 288.958,194.187 292.5,194.5C 294.257,193.708 295.591,192.375 296.5,190.5C 297.736,189.754 299.07,189.421 300.5,189.5C 300.2,181.777 300.533,174.11 301.5,166.5C 298.777,162.778 295.11,160.778 290.5,160.5C 284.412,157.361 278.079,156.695 271.5,158.5C 268.833,158.5 266.167,158.5 263.5,158.5C 263.5,158.167 263.5,157.833 263.5,157.5C 267.154,157.058 270.821,156.724 274.5,156.5 Z"/></g>
<g><path style="opacity:1" fill="#b98a69" d="M 211.5,157.5 C 209.167,157.5 206.833,157.5 204.5,157.5C 197.961,156.72 193.295,159.22 190.5,165C 191.066,173.449 192.399,181.782 194.5,190C 193.767,191.766 193.433,193.599 193.5,195.5C 195.833,195.5 198.167,195.5 200.5,195.5C 196.317,196.728 192.317,198.562 188.5,201C 186.549,202.734 185.549,204.901 185.5,207.5C 183.833,207.5 182.167,207.5 180.5,207.5C 179.209,207.737 178.209,207.404 177.5,206.5C 178.833,206.5 180.167,206.5 181.5,206.5C 181.067,202.3 180.4,198.133 179.5,194C 181.047,191.417 180.713,189.083 178.5,187C 179.104,184.476 179.771,181.976 180.5,179.5C 179.456,177.232 179.289,174.899 180,172.5C 181.892,171.383 182.725,169.716 182.5,167.5C 183.419,164.911 185.086,162.911 187.5,161.5C 190.961,160.269 194.294,158.769 197.5,157C 202.352,156.185 207.019,156.352 211.5,157.5 Z"/></g>
<g><path style="opacity:1" fill="#c99979" d="M 204.5,157.5 C 202.758,158.957 200.758,160.124 198.5,161C 198.348,170.403 198.848,179.903 200,189.5C 201.368,190.993 201.535,192.493 200.5,194C 204.821,194.499 209.154,194.666 213.5,194.5C 213.5,194.833 213.5,195.167 213.5,195.5C 209.167,195.5 204.833,195.5 200.5,195.5C 198.167,195.5 195.833,195.5 193.5,195.5C 193.433,193.599 193.767,191.766 194.5,190C 192.399,181.782 191.066,173.449 190.5,165C 193.295,159.22 197.961,156.72 204.5,157.5 Z"/></g>
<g><path style="opacity:1" fill="#352217" d="M 189.5,158.5 C 188.833,159.5 188.167,160.5 187.5,161.5C 185.086,162.911 183.419,164.911 182.5,167.5C 182.167,167.5 181.833,167.5 181.5,167.5C 180.5,167.5 179.5,167.5 178.5,167.5C 178.753,165.173 178.086,163.173 176.5,161.5C 172.963,163.745 169.796,166.412 167,169.5C 166.904,177.165 167.237,184.832 168,192.5C 170.164,195.447 170.998,198.781 170.5,202.5C 169.5,202.5 168.5,202.5 167.5,202.5C 166.012,195.543 164.678,188.543 163.5,181.5C 163.779,179.657 164.113,177.823 164.5,176C 164.613,174.301 163.947,173.134 162.5,172.5C 162.491,170.692 162.991,169.025 164,167.5C 170.712,159.65 179.212,156.65 189.5,158.5 Z"/></g>
<g><path style="opacity:1" fill="#432b1f" d="M 181.5,167.5 C 177.702,173.565 175.702,180.232 175.5,187.5C 173.666,193.92 172.332,200.586 171.5,207.5C 171.167,207.5 170.833,207.5 170.5,207.5C 169.438,205.901 169.438,204.234 170.5,202.5C 170.998,198.781 170.164,195.447 168,192.5C 167.237,184.832 166.904,177.165 167,169.5C 169.796,166.412 172.963,163.745 176.5,161.5C 178.086,163.173 178.753,165.173 178.5,167.5C 179.5,167.5 180.5,167.5 181.5,167.5 Z"/></g>
<g><path style="opacity:1" fill="#372317" d="M 312.5,168.5 C 312.5,168.167 312.5,167.833 312.5,167.5C 318.485,168.076 324.485,168.576 330.5,169C 332.868,171.907 334.535,175.074 335.5,178.5C 335.5,180.167 335.5,181.833 335.5,183.5C 334.732,184.263 334.232,185.263 334,186.5C 333.667,185.167 333.333,183.833 333,182.5C 332.581,183.672 331.915,184.672 331,185.5C 329.508,190.076 328.342,195.076 327.5,200.5C 328.833,200.5 330.167,200.5 331.5,200.5C 332.242,206.396 329.575,209.396 323.5,209.5C 323.672,208.508 323.338,207.842 322.5,207.5C 320.694,199.604 319.527,191.604 319,183.5C 317.95,178.419 316.116,173.752 313.5,169.5C 313.5,168.833 313.167,168.5 312.5,168.5 Z"/></g>
<g><path style="opacity:1" fill="#b88766" d="M 300.5,162.5 C 304.832,163.819 308.832,165.819 312.5,168.5C 313.167,168.5 313.5,168.833 313.5,169.5C 315.395,181.408 315.395,193.408 313.5,205.5C 311.833,205.5 310.167,205.5 308.5,205.5C 307.89,204.609 307.557,203.609 307.5,202.5C 305.909,200.563 304.242,198.563 302.5,196.5C 305.099,186.307 305.766,175.974 304.5,165.5C 302.739,164.965 301.406,163.965 300.5,162.5 Z"/></g>
<g><path style="opacity:1" fill="#cd9e7d" d="M 290.5,160.5 C 295.11,160.778 298.777,162.778 301.5,166.5C 300.533,174.11 300.2,181.777 300.5,189.5C 299.07,189.421 297.736,189.754 296.5,190.5C 295.591,192.375 294.257,193.708 292.5,194.5C 291.972,193.279 291.305,192.113 290.5,191C 292.077,188.043 291.744,185.376 289.5,183C 290,182.5 290.5,182 291,181.5C 291.72,174.464 291.553,167.464 290.5,160.5 Z"/></g>
<g><path style="opacity:1" fill="#a27658" d="M 313.5,169.5 C 316.116,173.752 317.95,178.419 319,183.5C 319.527,191.604 320.694,199.604 322.5,207.5C 322.38,208.586 321.713,209.253 320.5,209.5C 318.218,208.777 315.884,208.443 313.5,208.5C 311.469,208.028 309.802,207.028 308.5,205.5C 310.167,205.5 311.833,205.5 313.5,205.5C 315.395,193.408 315.395,181.408 313.5,169.5 Z"/></g>
<g><path style="opacity:1" fill="#a97b5a" d="M 181.5,167.5 C 181.833,167.5 182.167,167.5 182.5,167.5C 182.725,169.716 181.892,171.383 180,172.5C 179.289,174.899 179.456,177.232 180.5,179.5C 179.771,181.976 179.104,184.476 178.5,187C 180.713,189.083 181.047,191.417 179.5,194C 180.4,198.133 181.067,202.3 181.5,206.5C 180.167,206.5 178.833,206.5 177.5,206.5C 175.365,206.853 174.032,206.02 173.5,204C 175.341,198.69 176.008,193.19 175.5,187.5C 175.702,180.232 177.702,173.565 181.5,167.5 Z"/></g>
<g><path style="opacity:1" fill="#ddb194" d="M 222.5,158.5 C 236.167,158.5 249.833,158.5 263.5,158.5C 266.167,158.5 268.833,158.5 271.5,158.5C 275.167,158.5 278.833,158.5 282.5,158.5C 284.318,162.806 286.151,167.14 288,171.5C 288.497,173.81 288.663,176.143 288.5,178.5C 287.5,178.5 286.5,178.5 285.5,178.5C 285.693,182.007 285.027,185.34 283.5,188.5C 281.135,189.085 279.135,190.252 277.5,192C 277.833,192.333 278.167,192.667 278.5,193C 274.755,195.569 270.755,196.069 266.5,194.5C 260.118,196.72 253.618,198.387 247,199.5C 241.491,198.61 235.991,197.61 230.5,196.5C 229.758,195.713 228.925,195.047 228,194.5C 223.934,195.464 219.767,195.797 215.5,195.5C 214.833,195.5 214.167,195.5 213.5,195.5C 213.5,195.167 213.5,194.833 213.5,194.5C 215.527,194.662 217.527,194.495 219.5,194C 219.043,193.586 218.709,193.086 218.5,192.5C 215.152,191.713 211.818,190.879 208.5,190C 204.544,179.66 204.544,169.327 208.5,159C 213.155,158.501 217.821,158.334 222.5,158.5 Z"/></g>
<g><path style="opacity:1" fill="#e6b99f" d="M 230.5,160.5 C 231.398,161.158 232.398,161.824 233.5,162.5C 233.167,163.5 232.5,164.167 231.5,164.5C 230.336,170.472 230.17,176.472 231,182.5C 237.205,187.921 244.371,190.088 252.5,189C 256,186.833 259.5,184.667 263,182.5C 263.667,176.833 263.667,171.167 263,165.5C 261.786,163.951 260.286,162.785 258.5,162C 265.134,161.177 265.134,160.677 258.5,160.5C 263.786,158.868 268.786,159.702 273.5,163C 273.953,165.693 275.453,167.527 278,168.5C 278.498,171.817 278.665,175.15 278.5,178.5C 277.448,178.351 276.448,178.517 275.5,179C 274.898,181.036 273.898,182.87 272.5,184.5C 265.96,187.937 259.293,191.104 252.5,194C 245.821,195.151 239.488,194.151 233.5,191C 229.01,188.013 224.51,185.18 220,182.5C 219.751,183.624 219.251,184.624 218.5,185.5C 217.353,182.053 216.02,178.72 214.5,175.5C 215.885,169.535 218.885,164.702 223.5,161C 225.895,159.402 228.228,159.236 230.5,160.5 Z"/></g>
<g><path style="opacity:1" fill="#e9bfa6" d="M 230.5,160.5 C 239.833,160.5 249.167,160.5 258.5,160.5C 265.134,160.677 265.134,161.177 258.5,162C 260.286,162.785 261.786,163.951 263,165.5C 263.667,171.167 263.667,176.833 263,182.5C 259.5,184.667 256,186.833 252.5,189C 244.371,190.088 237.205,187.921 231,182.5C 230.17,176.472 230.336,170.472 231.5,164.5C 232.5,164.167 233.167,163.5 233.5,162.5C 232.398,161.824 231.398,161.158 230.5,160.5 Z"/></g>
<g><path style="opacity:1" fill="#d5a98c" d="M 271.5,158.5 C 278.079,156.695 284.412,157.361 290.5,160.5C 291.553,167.464 291.72,174.464 291,181.5C 290.5,182 290,182.5 289.5,183C 291.744,185.376 292.077,188.043 290.5,191C 291.305,192.113 291.972,193.279 292.5,194.5C 288.958,194.187 285.625,194.521 282.5,195.5C 276.103,194.962 270.77,196.962 266.5,201.5C 262.518,203.842 258.184,206.342 253.5,209C 252.366,210.016 252.699,210.683 254.5,211C 249.5,211.667 244.5,211.667 239.5,211C 240.167,210.667 240.833,210.333 241.5,210C 237.7,206.767 233.367,204.6 228.5,203.5C 228.817,200.454 227.484,198.787 224.5,198.5C 221.341,197.669 218.341,196.669 215.5,195.5C 219.767,195.797 223.934,195.464 228,194.5C 228.925,195.047 229.758,195.713 230.5,196.5C 235.991,197.61 241.491,198.61 247,199.5C 253.618,198.387 260.118,196.72 266.5,194.5C 270.755,196.069 274.755,195.569 278.5,193C 278.167,192.667 277.833,192.333 277.5,192C 279.135,190.252 281.135,189.085 283.5,188.5C 285.027,185.34 285.693,182.007 285.5,178.5C 286.5,178.5 287.5,178.5 288.5,178.5C 288.663,176.143 288.497,173.81 288,171.5C 286.151,167.14 284.318,162.806 282.5,158.5C 278.833,158.5 275.167,158.5 271.5,158.5 Z"/></g>
<g><path style="opacity:1" fill="#271811" d="M 335.5,183.5 C 335.232,185.099 335.566,186.432 336.5,187.5C 336.565,198.149 334.898,208.482 331.5,218.5C 333.059,220.131 335.059,220.964 337.5,221C 339.919,222.509 340.919,224.675 340.5,227.5C 339.833,226.5 339.167,225.5 338.5,224.5C 337.313,222.025 335.313,221.025 332.5,221.5C 330.896,218.597 329.896,215.263 329.5,211.5C 327.591,210.652 325.591,210.318 323.5,210.5C 323.5,210.167 323.5,209.833 323.5,209.5C 329.575,209.396 332.242,206.396 331.5,200.5C 330.167,200.5 328.833,200.5 327.5,200.5C 328.342,195.076 329.508,190.076 331,185.5C 331.915,184.672 332.581,183.672 333,182.5C 333.333,183.833 333.667,185.167 334,186.5C 334.232,185.263 334.732,184.263 335.5,183.5 Z"/></g>
<g><path style="opacity:1" fill="#5a4639" d="M 282.5,195.5 C 291.759,194.812 300.092,197.146 307.5,202.5C 307.557,203.609 307.89,204.609 308.5,205.5C 309.802,207.028 311.469,208.028 313.5,208.5C 307.996,208.748 303.996,206.414 301.5,201.5C 300.753,205.187 298.753,206.187 295.5,204.5C 294.14,205.18 292.807,205.847 291.5,206.5C 289.034,205.366 286.367,205.199 283.5,206C 279.442,207.556 275.275,208.723 271,209.5C 269.566,209.138 268.399,208.472 267.5,207.5C 266.659,205.621 266.325,203.621 266.5,201.5C 270.77,196.962 276.103,194.962 282.5,195.5 Z"/></g>
<g><path style="opacity:1" fill="#2d1d13" d="M 162.5,172.5 C 163.947,173.134 164.613,174.301 164.5,176C 164.113,177.823 163.779,179.657 163.5,181.5C 164.678,188.543 166.012,195.543 167.5,202.5C 168.5,202.5 169.5,202.5 170.5,202.5C 169.438,204.234 169.438,205.901 170.5,207.5C 170.715,209.179 170.048,210.179 168.5,210.5C 167.178,210.33 166.011,210.663 165,211.5C 164.333,215.167 164.333,218.833 165,222.5C 166.167,223.667 167.333,224.833 168.5,226C 167.906,226.464 167.239,226.631 166.5,226.5C 165.053,224.597 163.386,222.93 161.5,221.5C 162.693,221.03 163.36,220.03 163.5,218.5C 160.567,210.869 159.901,203.035 161.5,195C 160.304,189.572 159.637,184.072 159.5,178.5C 160.203,176.371 161.203,174.371 162.5,172.5 Z"/></g>
<g><path style="opacity:1" fill="#594538" d="M 200.5,195.5 C 204.833,195.5 209.167,195.5 213.5,195.5C 214.167,195.5 214.833,195.5 215.5,195.5C 218.341,196.669 221.341,197.669 224.5,198.5C 227.429,200.962 228.096,203.962 226.5,207.5C 225.448,208.53 224.114,209.197 222.5,209.5C 218.678,208.962 215.011,207.962 211.5,206.5C 210.207,205.842 208.707,205.508 207,205.5C 201.176,206.102 195.342,206.602 189.5,207C 183.538,209.187 177.371,210.687 171,211.5C 169.93,211.472 169.097,211.139 168.5,210.5C 170.048,210.179 170.715,209.179 170.5,207.5C 170.833,207.5 171.167,207.5 171.5,207.5C 171.62,208.586 172.287,209.253 173.5,209.5C 176.029,209.071 178.362,208.404 180.5,207.5C 182.167,207.5 183.833,207.5 185.5,207.5C 185.549,204.901 186.549,202.734 188.5,201C 192.317,198.562 196.317,196.728 200.5,195.5 Z"/></g>
<g><path style="opacity:1" fill="#c69b80" d="M 224.5,198.5 C 227.484,198.787 228.817,200.454 228.5,203.5C 233.367,204.6 237.7,206.767 241.5,210C 240.833,210.333 240.167,210.667 239.5,211C 244.5,211.667 249.5,211.667 254.5,211C 252.699,210.683 252.366,210.016 253.5,209C 258.184,206.342 262.518,203.842 266.5,201.5C 266.325,203.621 266.659,205.621 267.5,207.5C 266.345,209.825 264.345,210.992 261.5,211C 250.026,213.317 238.693,212.817 227.5,209.5C 226.702,209.043 226.369,208.376 226.5,207.5C 228.096,203.962 227.429,200.962 224.5,198.5 Z"/></g>
<g><path style="opacity:1" fill="#91694f" d="M 175.5,187.5 C 176.008,193.19 175.341,198.69 173.5,204C 174.032,206.02 175.365,206.853 177.5,206.5C 178.209,207.404 179.209,207.737 180.5,207.5C 178.362,208.404 176.029,209.071 173.5,209.5C 172.287,209.253 171.62,208.586 171.5,207.5C 172.332,200.586 173.666,193.92 175.5,187.5 Z"/></g>
<g><path style="opacity:0.607" fill="#1e130d" d="M 153.5,167.5 C 155.78,170.84 157.78,174.507 159.5,178.5C 159.637,184.072 160.304,189.572 161.5,195C 159.901,203.035 160.567,210.869 163.5,218.5C 163.36,220.03 162.693,221.03 161.5,221.5C 158.687,221.025 156.687,222.025 155.5,224.5C 154.833,225.5 154.167,226.5 153.5,227.5C 153.694,222.475 156.361,219.975 161.5,220C 162.022,219.439 162.355,218.772 162.5,218C 161.683,216.51 160.85,215.01 160,213.5C 159.032,197.935 156.865,182.602 153.5,167.5 Z"/></g>
<g><path style="opacity:1" fill="#454342" d="M 323.5,210.5 C 325.591,210.318 327.591,210.652 329.5,211.5C 329.896,215.263 330.896,218.597 332.5,221.5C 330.771,222.236 329.771,223.57 329.5,225.5C 328.18,226.942 326.514,227.608 324.5,227.5C 324.662,237.261 322.828,246.595 319,255.5C 316.584,258.423 313.75,260.757 310.5,262.5C 306.818,262.665 303.152,262.499 299.5,262C 306.92,260.723 312.42,256.89 316,250.5C 316.58,247.453 316.247,247.119 315,249.5C 314.601,249.272 314.435,248.938 314.5,248.5C 314.5,247.833 314.5,247.167 314.5,246.5C 316.556,238.555 316.889,230.555 315.5,222.5C 314.761,218.592 312.428,216.092 308.5,215C 300.173,214.5 291.84,214.334 283.5,214.5C 276.001,214.414 269.168,216.414 263,220.5C 261.276,226.082 261.109,231.749 262.5,237.5C 261.414,237.38 260.747,236.713 260.5,235.5C 259.787,231.676 259.12,227.843 258.5,224C 259.166,222.331 259.166,220.831 258.5,219.5C 260.078,218.702 261.744,218.202 263.5,218C 263.167,217.667 262.833,217.333 262.5,217C 270.565,213.054 279.065,211.554 288,212.5C 295.595,211.931 303.095,210.931 310.5,209.5C 314.818,210.082 319.151,210.415 323.5,210.5 Z"/></g>
<g><path style="opacity:1" fill="#494745" d="M 313.5,208.5 C 315.884,208.443 318.218,208.777 320.5,209.5C 321.713,209.253 322.38,208.586 322.5,207.5C 323.338,207.842 323.672,208.508 323.5,209.5C 323.5,209.833 323.5,210.167 323.5,210.5C 319.151,210.415 314.818,210.082 310.5,209.5C 303.095,210.931 295.595,211.931 288,212.5C 279.065,211.554 270.565,213.054 262.5,217C 262.833,217.333 263.167,217.667 263.5,218C 261.744,218.202 260.078,218.702 258.5,219.5C 259.166,220.831 259.166,222.331 258.5,224C 259.12,227.843 259.787,231.676 260.5,235.5C 260.747,236.713 261.414,237.38 262.5,237.5C 263.167,238.5 263.833,239.5 264.5,240.5C 264.5,240.833 264.5,241.167 264.5,241.5C 266.058,246.284 268.391,250.618 271.5,254.5C 272.485,259.312 275.485,261.812 280.5,262C 277.183,262.498 273.85,262.665 270.5,262.5C 268.167,260.5 265.833,258.5 263.5,256.5C 260.708,251.124 258.708,245.457 257.5,239.5C 256.756,234.092 254.756,229.258 251.5,225C 248.264,223.276 244.93,223.11 241.5,224.5C 241.762,223.022 241.429,221.689 240.5,220.5C 237.56,221.23 234.893,220.397 232.5,218C 229.883,217.178 227.216,216.678 224.5,216.5C 211.598,214.508 198.598,214.008 185.5,215C 181.544,216.118 179.211,218.618 178.5,222.5C 177.111,230.555 177.444,238.555 179.5,246.5C 179.833,247.833 180.167,249.167 180.5,250.5C 180.565,250.938 180.399,251.272 180,251.5C 179.444,249.405 178.944,249.238 178.5,251C 182.235,257.384 187.902,261.051 195.5,262C 191.514,262.499 187.514,262.666 183.5,262.5C 182.078,262.291 180.745,261.791 179.5,261C 177.333,258.167 175.167,255.333 173,252.5C 171.031,244.973 170.031,237.306 170,229.5C 169.583,228.244 168.75,227.577 167.5,227.5C 167.167,227.5 166.833,227.5 166.5,227.5C 166.5,227.167 166.5,226.833 166.5,226.5C 167.239,226.631 167.906,226.464 168.5,226C 167.333,224.833 166.167,223.667 165,222.5C 164.333,218.833 164.333,215.167 165,211.5C 166.011,210.663 167.178,210.33 168.5,210.5C 169.097,211.139 169.93,211.472 171,211.5C 177.371,210.687 183.538,209.187 189.5,207C 195.342,206.602 201.176,206.102 207,205.5C 208.707,205.508 210.207,205.842 211.5,206.5C 208.813,206.336 206.146,206.503 203.5,207C 203.833,207.333 204.167,207.667 204.5,208C 215.36,210.045 226.193,212.211 237,214.5C 243.667,213.167 250.333,213.167 257,214.5C 267.674,211.665 278.507,209.665 289.5,208.5C 290.243,207.818 290.909,207.151 291.5,206.5C 292.807,205.847 294.14,205.18 295.5,204.5C 298.753,206.187 300.753,205.187 301.5,201.5C 303.996,206.414 307.996,208.748 313.5,208.5 Z"/></g>
<g><path style="opacity:1" fill="#a49083" d="M 224.5,216.5 C 225.514,217.674 226.847,218.34 228.5,218.5C 228.631,219.239 228.464,219.906 228,220.5C 225.833,218.536 223.499,218.202 221,219.5C 219.538,217.852 217.705,216.852 215.5,216.5C 213.167,216.5 210.833,216.5 208.5,216.5C 203.934,215.203 199.267,215.203 194.5,216.5C 193.833,216.5 193.167,216.5 192.5,216.5C 183.494,214.847 179.161,218.514 179.5,227.5C 178.339,227.589 178.006,225.922 178.5,222.5C 179.211,218.618 181.544,216.118 185.5,215C 198.598,214.008 211.598,214.508 224.5,216.5 Z"/></g>
<g><path style="opacity:1" fill="#807169" d="M 291.5,206.5 C 290.909,207.151 290.243,207.818 289.5,208.5C 278.507,209.665 267.674,211.665 257,214.5C 250.333,213.167 243.667,213.167 237,214.5C 226.193,212.211 215.36,210.045 204.5,208C 204.167,207.667 203.833,207.333 203.5,207C 206.146,206.503 208.813,206.336 211.5,206.5C 215.011,207.962 218.678,208.962 222.5,209.5C 224.114,209.197 225.448,208.53 226.5,207.5C 226.369,208.376 226.702,209.043 227.5,209.5C 238.693,212.817 250.026,213.317 261.5,211C 264.345,210.992 266.345,209.825 267.5,207.5C 268.399,208.472 269.566,209.138 271,209.5C 275.275,208.723 279.442,207.556 283.5,206C 286.367,205.199 289.034,205.366 291.5,206.5 Z"/></g>
<g><path style="opacity:1" fill="#79675d" d="M 208.5,216.5 C 204.713,216.78 201.047,216.78 197.5,216.5C 196.466,219.125 195.466,219.125 194.5,216.5C 199.267,215.203 203.934,215.203 208.5,216.5 Z"/></g>
<g><path style="opacity:1" fill="#8a786b" d="M 283.5,214.5 C 288.316,215.326 293.316,215.826 298.5,216C 300.133,216.48 301.466,217.313 302.5,218.5C 302.44,219.043 302.107,219.376 301.5,219.5C 299.942,218.629 298.275,217.629 296.5,216.5C 290.621,216.649 284.621,216.649 278.5,216.5C 272.736,216.547 267.736,218.547 263.5,222.5C 262.352,226.845 263.018,230.845 265.5,234.5C 264.659,236.379 264.325,238.379 264.5,240.5C 263.833,239.5 263.167,238.5 262.5,237.5C 261.109,231.749 261.276,226.082 263,220.5C 269.168,216.414 276.001,214.414 283.5,214.5 Z"/></g>
<g><path style="opacity:1" fill="#a3826c" d="M 192.5,216.5 C 193.562,217.575 193.562,218.575 192.5,219.5C 191.097,219.64 189.597,219.64 188,219.5C 187.508,220.549 187.674,221.549 188.5,222.5C 187.575,223.562 186.575,223.562 185.5,222.5C 185.565,222.062 185.399,221.728 185,221.5C 184.111,224.095 182.611,226.095 180.5,227.5C 180.167,227.5 179.833,227.5 179.5,227.5C 179.161,218.514 183.494,214.847 192.5,216.5 Z"/></g>
<g><path style="opacity:1" fill="#423730" d="M 192.5,216.5 C 193.167,216.5 193.833,216.5 194.5,216.5C 195.466,219.125 196.466,219.125 197.5,216.5C 201.047,216.78 204.713,216.78 208.5,216.5C 210.833,216.5 213.167,216.5 215.5,216.5C 217.292,218.569 219.626,219.903 222.5,220.5C 224.11,222.792 225.776,225.125 227.5,227.5C 229.51,229.317 229.843,231.317 228.5,233.5C 228.167,232.833 227.833,232.167 227.5,231.5C 225.225,226.017 221.225,222.35 215.5,220.5C 211.956,218.431 208.29,218.098 204.5,219.5C 197.525,220.475 192.525,224.142 189.5,230.5C 188.596,231.209 188.263,232.209 188.5,233.5C 185.146,235.113 182.146,234.78 179.5,232.5C 181.276,232.206 183.276,232.04 185.5,232C 180.158,229.743 180.158,228.743 185.5,229C 183.993,228.163 183.493,226.996 184,225.5C 185.049,226.517 186.216,226.684 187.5,226C 186.177,225.184 185.511,224.017 185.5,222.5C 186.575,223.562 187.575,223.562 188.5,222.5C 187.674,221.549 187.508,220.549 188,219.5C 189.597,219.64 191.097,219.64 192.5,219.5C 193.562,218.575 193.562,217.575 192.5,216.5 Z"/></g>
<g><path style="opacity:1" fill="#a58876" d="M 283.5,214.5 C 291.84,214.334 300.173,214.5 308.5,215C 312.428,216.092 314.761,218.592 315.5,222.5C 315.662,224.527 315.495,226.527 315,228.5C 313.989,227.663 312.822,227.33 311.5,227.5C 310.359,224.279 308.692,221.279 306.5,218.5C 305.893,218.624 305.56,218.957 305.5,219.5C 305.189,220.478 304.522,221.145 303.5,221.5C 303.407,220.528 303.074,219.528 302.5,218.5C 301.466,217.313 300.133,216.48 298.5,216C 293.316,215.826 288.316,215.326 283.5,214.5 Z"/></g>
<g><path style="opacity:1" fill="#706b65" d="M 204.5,219.5 C 208.29,218.098 211.956,218.431 215.5,220.5C 214.833,220.5 214.5,220.833 214.5,221.5C 212.621,220.659 210.621,220.325 208.5,220.5C 207.432,219.566 206.099,219.232 204.5,219.5 Z"/></g>
<g><path style="opacity:1" fill="#775743" d="M 278.5,216.5 C 278.5,216.833 278.5,217.167 278.5,217.5C 272.539,220.128 268.205,224.461 265.5,230.5C 265.624,231.107 265.957,231.44 266.5,231.5C 265.89,232.391 265.557,233.391 265.5,234.5C 263.018,230.845 262.352,226.845 263.5,222.5C 267.736,218.547 272.736,216.547 278.5,216.5 Z"/></g>
<g><path style="opacity:1" fill="#38312b" d="M 278.5,217.5 C 285.674,217.012 292.674,217.845 299.5,220C 303.511,222.384 306.511,225.051 308.5,228C 307.255,228.791 305.922,229.291 304.5,229.5C 304.167,229.5 303.833,229.5 303.5,229.5C 300.805,223.48 296.138,220.147 289.5,219.5C 284.881,217.954 280.548,218.62 276.5,221.5C 271.93,222.948 268.93,225.948 267.5,230.5C 266.833,230.5 266.5,230.833 266.5,231.5C 265.957,231.44 265.624,231.107 265.5,230.5C 268.205,224.461 272.539,220.128 278.5,217.5 Z"/></g>
<g><path style="opacity:1" fill="#b0b0ad" d="M 285.5,220.5 C 286.568,219.566 287.901,219.232 289.5,219.5C 296.138,220.147 300.805,223.48 303.5,229.5C 301.516,229.617 299.85,228.95 298.5,227.5C 297.702,227.957 297.369,228.624 297.5,229.5C 295.248,224.256 291.248,221.256 285.5,220.5 Z"/></g>
<g><path style="opacity:1" fill="#74716b" d="M 289.5,219.5 C 287.901,219.232 286.568,219.566 285.5,220.5C 282.579,220.283 279.913,220.949 277.5,222.5C 277.5,221.833 277.167,221.5 276.5,221.5C 280.548,218.62 284.881,217.954 289.5,219.5 Z"/></g>
<g><path style="opacity:1" fill="#39352b" d="M 208.5,220.5 C 210.621,220.325 212.621,220.659 214.5,221.5C 217.855,222.855 220.189,225.189 221.5,228.5C 221.881,230.942 221.214,231.609 219.5,230.5C 218.83,232.291 218.163,233.958 217.5,235.5C 218.165,227.853 214.831,224.853 207.5,226.5C 203.201,224.406 201.201,225.74 201.5,230.5C 201.401,233.237 201.735,235.904 202.5,238.5C 200.801,238.527 199.467,239.194 198.5,240.5C 196.909,237.039 196.242,233.372 196.5,229.5C 198.765,224.241 202.765,221.241 208.5,220.5 Z"/></g>
<g><path style="opacity:1" fill="#3b362e" d="M 285.5,220.5 C 291.248,221.256 295.248,224.256 297.5,229.5C 297.5,231.167 297.5,232.833 297.5,234.5C 296.792,232.622 295.626,230.955 294,229.5C 293.809,231.708 293.309,233.708 292.5,235.5C 293.041,227.809 289.708,224.809 282.5,226.5C 277.167,224.5 275.5,226.167 277.5,231.5C 276.343,234.026 276.343,236.693 277.5,239.5C 275.805,238.174 274.472,238.507 273.5,240.5C 273.167,239.833 272.833,239.167 272.5,238.5C 270.172,231.82 271.839,226.487 277.5,222.5C 279.913,220.949 282.579,220.283 285.5,220.5 Z"/></g>
<g><path style="opacity:1" fill="#72513d" d="M 222.5,220.5 C 224.746,221.21 227.08,221.71 229.5,222C 230.406,223.699 230.739,225.533 230.5,227.5C 229.5,227.5 228.5,227.5 227.5,227.5C 225.776,225.125 224.11,222.792 222.5,220.5 Z"/></g>
<g><path style="opacity:1" fill="#514037" d="M 278.5,217.5 C 278.5,217.167 278.5,216.833 278.5,216.5C 284.621,216.649 290.621,216.649 296.5,216.5C 298.275,217.629 299.942,218.629 301.5,219.5C 302.107,219.376 302.44,219.043 302.5,218.5C 303.074,219.528 303.407,220.528 303.5,221.5C 304.522,221.145 305.189,220.478 305.5,219.5C 306.653,220.313 306.653,221.313 305.5,222.5C 306.274,223.711 307.107,223.711 308,222.5C 308.492,223.549 308.326,224.549 307.5,225.5C 308.274,226.711 309.107,226.711 310,225.5C 310.483,226.448 310.649,227.448 310.5,228.5C 311.552,228.351 312.552,228.517 313.5,229C 311.833,230 310.167,231 308.5,232C 310.657,232.078 312.657,232.245 314.5,232.5C 311.636,234.544 308.636,234.877 305.5,233.5C 305.567,232.041 305.234,230.708 304.5,229.5C 305.922,229.291 307.255,228.791 308.5,228C 306.511,225.051 303.511,222.384 299.5,220C 292.674,217.845 285.674,217.012 278.5,217.5 Z"/></g>
<g><path style="opacity:1" fill="#c6c4c0" d="M 207.5,226.5 C 207.799,231.26 205.799,232.594 201.5,230.5C 201.201,225.74 203.201,224.406 207.5,226.5 Z"/></g>
<g><path style="opacity:1" fill="#725b50" d="M 185.5,222.5 C 185.511,224.017 186.177,225.184 187.5,226C 186.216,226.684 185.049,226.517 184,225.5C 183.493,226.996 183.993,228.163 185.5,229C 180.158,228.743 180.158,229.743 185.5,232C 183.276,232.04 181.276,232.206 179.5,232.5C 178.957,232.44 178.624,232.107 178.5,231.5C 179.853,230.476 180.52,229.143 180.5,227.5C 182.611,226.095 184.111,224.095 185,221.5C 185.399,221.728 185.565,222.062 185.5,222.5 Z"/></g>
<g><path style="opacity:1" fill="#b1b0af" d="M 204.5,219.5 C 206.099,219.232 207.432,219.566 208.5,220.5C 202.765,221.241 198.765,224.241 196.5,229.5C 196.631,228.761 196.464,228.094 196,227.5C 193.779,228.406 191.612,229.406 189.5,230.5C 192.525,224.142 197.525,220.475 204.5,219.5 Z"/></g>
<g><path style="opacity:1" fill="#acaaa6" d="M 214.5,221.5 C 214.5,220.833 214.833,220.5 215.5,220.5C 221.225,222.35 225.225,226.017 227.5,231.5C 226.518,230.859 225.518,230.193 224.5,229.5C 223.83,231.291 223.163,232.958 222.5,234.5C 222.795,232.265 222.461,230.265 221.5,228.5C 220.189,225.189 217.855,222.855 214.5,221.5 Z"/></g>
<g><path style="opacity:1" fill="#4c443e" d="M 224.5,216.5 C 227.216,216.678 229.883,217.178 232.5,218C 234.893,220.397 237.56,221.23 240.5,220.5C 241.429,221.689 241.762,223.022 241.5,224.5C 244.93,223.11 248.264,223.276 251.5,225C 254.756,229.258 256.756,234.092 257.5,239.5C 255.595,236.696 253.929,233.696 252.5,230.5C 252.863,228.089 251.863,226.589 249.5,226C 247.029,225.294 244.695,225.627 242.5,227C 240.66,231.021 239.326,235.188 238.5,239.5C 235.738,244.229 233.238,249.229 231,254.5C 229,257.666 226.5,260.332 223.5,262.5C 220.813,262.664 218.146,262.497 215.5,262C 216.536,260.383 217.703,260.216 219,261.5C 219.49,260.207 219.657,258.873 219.5,257.5C 223.301,254.042 226.301,250.042 228.5,245.5C 228.326,247.861 227.993,250.194 227.5,252.5C 228.5,252.5 229.5,252.5 230.5,252.5C 231.637,248.583 232.47,244.583 233,240.5C 235,239.833 236.333,238.5 237,236.5C 237.189,232.83 238.023,229.33 239.5,226C 238.924,224.286 237.757,223.119 236,222.5C 235.276,226.427 234.109,230.094 232.5,233.5C 232.665,229.818 232.499,226.152 232,222.5C 231.34,220.676 230.173,219.343 228.5,218.5C 226.847,218.34 225.514,217.674 224.5,216.5 Z"/></g>
<g><path style="opacity:1" fill="#795135" d="M 252.5,230.5 C 249.813,230.336 247.146,230.503 244.5,231C 242.573,233.926 240.573,236.76 238.5,239.5C 239.326,235.188 240.66,231.021 242.5,227C 244.695,225.627 247.029,225.294 249.5,226C 251.863,226.589 252.863,228.089 252.5,230.5 Z"/></g>
<g><path style="opacity:1" fill="#d4cfd0" d="M 282.5,226.5 C 282.5,229.833 280.833,231.5 277.5,231.5C 275.5,226.167 277.167,224.5 282.5,226.5 Z"/></g>
<g><path style="opacity:1" fill="#816859" d="M 215.5,216.5 C 217.705,216.852 219.538,217.852 221,219.5C 223.499,218.202 225.833,218.536 228,220.5C 228.464,219.906 228.631,219.239 228.5,218.5C 230.173,219.343 231.34,220.676 232,222.5C 232.499,226.152 232.665,229.818 232.5,233.5C 231.651,235.888 230.651,238.221 229.5,240.5C 229.552,238.097 229.219,235.764 228.5,233.5C 229.843,231.317 229.51,229.317 227.5,227.5C 228.5,227.5 229.5,227.5 230.5,227.5C 230.739,225.533 230.406,223.699 229.5,222C 227.08,221.71 224.746,221.21 222.5,220.5C 219.626,219.903 217.292,218.569 215.5,216.5 Z"/></g>
<g><path style="opacity:1" fill="#b1b0af" d="M 276.5,221.5 C 277.167,221.5 277.5,221.833 277.5,222.5C 271.839,226.487 270.172,231.82 272.5,238.5C 271.883,238.611 271.383,238.944 271,239.5C 270.824,236.118 270.324,232.785 269.5,229.5C 268.817,229.863 268.15,230.196 267.5,230.5C 268.93,225.948 271.93,222.948 276.5,221.5 Z"/></g>
<g><path style="opacity:1" fill="#232321" d="M 292.5,235.5 C 291.89,236.391 291.557,237.391 291.5,238.5C 290.167,239.5 288.833,240.5 287.5,241.5C 283.917,241.768 280.584,241.101 277.5,239.5C 276.343,236.693 276.343,234.026 277.5,231.5C 280.833,231.5 282.5,229.833 282.5,226.5C 289.708,224.809 293.041,227.809 292.5,235.5 Z"/></g>
<g><path style="opacity:1" fill="#be9071" d="M 332.5,221.5 C 335.313,221.025 337.313,222.025 338.5,224.5C 338.5,225.5 338.5,226.5 338.5,227.5C 337.448,227.351 336.448,227.517 335.5,228C 334.695,229.972 333.361,231.472 331.5,232.5C 330.806,235.088 329.64,237.421 328,239.5C 327.501,235.848 327.335,232.182 327.5,228.5C 328.906,228.027 329.573,227.027 329.5,225.5C 329.771,223.57 330.771,222.236 332.5,221.5 Z"/></g>
<g><path style="opacity:1" fill="#8c5e3f" d="M 155.5,227.5 C 159.454,229.62 162.621,232.62 165,236.5C 166.392,233.722 166.892,230.722 166.5,227.5C 166.833,227.5 167.167,227.5 167.5,227.5C 168.499,235.493 169.499,243.493 170.5,251.5C 171.798,254.853 173.465,258.02 175.5,261C 172.854,261.497 170.187,261.664 167.5,261.5C 166.164,253.819 164.664,246.153 163,238.5C 161.338,235.423 158.838,233.423 155.5,232.5C 155.5,230.833 155.5,229.167 155.5,227.5 Z"/></g>
<g><path style="opacity:1" fill="#a0775c" d="M 252.5,230.5 C 253.929,233.696 255.595,236.696 257.5,239.5C 258.708,245.457 260.708,251.124 263.5,256.5C 264.63,258.315 265.296,260.315 265.5,262.5C 262.312,260.733 260.645,257.9 260.5,254C 257.356,249.37 254.689,244.537 252.5,239.5C 251.833,238.5 251.167,237.5 250.5,236.5C 247.919,233.833 245.419,234.167 243,237.5C 240.391,242.525 237.891,247.525 235.5,252.5C 236.624,248.214 237.624,243.881 238.5,239.5C 240.573,236.76 242.573,233.926 244.5,231C 247.146,230.503 249.813,230.336 252.5,230.5 Z"/></g>
<g><path style="opacity:1" fill="#c19375" d="M 161.5,221.5 C 163.386,222.93 165.053,224.597 166.5,226.5C 166.5,226.833 166.5,227.167 166.5,227.5C 166.892,230.722 166.392,233.722 165,236.5C 162.621,232.62 159.454,229.62 155.5,227.5C 155.5,226.5 155.5,225.5 155.5,224.5C 156.687,222.025 158.687,221.025 161.5,221.5 Z"/></g>
<g><path style="opacity:1" fill="#856e63" d="M 305.5,219.5 C 305.56,218.957 305.893,218.624 306.5,218.5C 308.692,221.279 310.359,224.279 311.5,227.5C 312.822,227.33 313.989,227.663 315,228.5C 315.495,226.527 315.662,224.527 315.5,222.5C 316.889,230.555 316.556,238.555 314.5,246.5C 314.216,243.368 313.383,240.368 312,237.5C 310.103,235.984 307.936,235.317 305.5,235.5C 305.5,234.833 305.5,234.167 305.5,233.5C 308.636,234.877 311.636,234.544 314.5,232.5C 312.657,232.245 310.657,232.078 308.5,232C 310.167,231 311.833,230 313.5,229C 312.552,228.517 311.552,228.351 310.5,228.5C 310.649,227.448 310.483,226.448 310,225.5C 309.107,226.711 308.274,226.711 307.5,225.5C 308.326,224.549 308.492,223.549 308,222.5C 307.107,223.711 306.274,223.711 305.5,222.5C 306.653,221.313 306.653,220.313 305.5,219.5 Z"/></g>
<g><path style="opacity:1" fill="#252321" d="M 217.5,235.5 C 217.443,236.609 217.11,237.609 216.5,238.5C 215.341,240.25 213.674,241.25 211.5,241.5C 209.143,241.663 206.81,241.497 204.5,241C 203.619,240.292 202.953,239.458 202.5,238.5C 201.735,235.904 201.401,233.237 201.5,230.5C 205.799,232.594 207.799,231.26 207.5,226.5C 214.831,224.853 218.165,227.853 217.5,235.5 Z"/></g>
<g><path style="opacity:1" fill="#564e43" d="M 221.5,228.5 C 222.461,230.265 222.795,232.265 222.5,234.5C 222.371,236.216 222.038,237.883 221.5,239.5C 220.849,238.909 220.182,238.243 219.5,237.5C 218.583,238.127 217.583,238.461 216.5,238.5C 217.11,237.609 217.443,236.609 217.5,235.5C 218.163,233.958 218.83,232.291 219.5,230.5C 221.214,231.609 221.881,230.942 221.5,228.5 Z"/></g>
<g><path style="opacity:1" fill="#755b4c" d="M 155.5,224.5 C 155.5,225.5 155.5,226.5 155.5,227.5C 155.5,229.167 155.5,230.833 155.5,232.5C 155.5,234.833 155.5,237.167 155.5,239.5C 155.5,240.833 155.5,242.167 155.5,243.5C 154.833,242.167 154.167,240.833 153.5,239.5C 152.167,235.5 152.167,231.5 153.5,227.5C 154.167,226.5 154.833,225.5 155.5,224.5 Z"/></g>
<g><path style="opacity:1" fill="#74594a" d="M 338.5,224.5 C 339.167,225.5 339.833,226.5 340.5,227.5C 341.787,231.268 341.787,234.935 340.5,238.5C 339.833,241.167 339.167,243.833 338.5,246.5C 338.5,242.5 338.5,238.5 338.5,234.5C 338.5,233.833 338.5,233.167 338.5,232.5C 338.5,230.833 338.5,229.167 338.5,227.5C 338.5,226.5 338.5,225.5 338.5,224.5 Z"/></g>
<g><path style="opacity:1" fill="#474848" d="M 228.5,245.5 C 228.833,244.167 229.167,242.833 229.5,241.5C 229.5,241.167 229.5,240.833 229.5,240.5C 230.651,238.221 231.651,235.888 232.5,233.5C 234.109,230.094 235.276,226.427 236,222.5C 237.757,223.119 238.924,224.286 239.5,226C 238.023,229.33 237.189,232.83 237,236.5C 236.333,238.5 235,239.833 233,240.5C 232.47,244.583 231.637,248.583 230.5,252.5C 229.5,252.5 228.5,252.5 227.5,252.5C 227.993,250.194 228.326,247.861 228.5,245.5 Z"/></g>
<g><path style="opacity:1" fill="#e3b79b" d="M 250.5,236.5 C 251.167,237.5 251.833,238.5 252.5,239.5C 253.058,242.344 253.725,245.178 254.5,248C 254.167,248.833 253.833,249.667 253.5,250.5C 249.034,251.985 244.701,251.818 240.5,250C 241.557,245.711 243.057,241.544 245,237.5C 246.699,236.594 248.533,236.261 250.5,236.5 Z"/></g>
<g><path style="opacity:1" fill="#8e7466" d="M 178.5,222.5 C 178.006,225.922 178.339,227.589 179.5,227.5C 179.833,227.5 180.167,227.5 180.5,227.5C 180.52,229.143 179.853,230.476 178.5,231.5C 178.624,232.107 178.957,232.44 179.5,232.5C 182.146,234.78 185.146,235.113 188.5,233.5C 188.5,234.167 188.5,234.833 188.5,235.5C 183.246,234.769 181.079,237.102 182,242.5C 180.893,241.288 180.393,241.621 180.5,243.5C 179.596,244.209 179.263,245.209 179.5,246.5C 177.444,238.555 177.111,230.555 178.5,222.5 Z"/></g>
<g><path style="opacity:1" fill="#a87a59" d="M 155.5,232.5 C 158.838,233.423 161.338,235.423 163,238.5C 164.664,246.153 166.164,253.819 167.5,261.5C 167.5,262.167 167.167,262.5 166.5,262.5C 165.739,261.609 164.739,260.942 163.5,260.5C 161.73,254.287 160.563,247.954 160,241.5C 159.19,237.728 157.69,237.061 155.5,239.5C 155.5,237.167 155.5,234.833 155.5,232.5 Z"/></g>
<g><path style="opacity:1" fill="#d8d3d1" d="M 303.5,229.5 C 303.833,229.5 304.167,229.5 304.5,229.5C 305.234,230.708 305.567,232.041 305.5,233.5C 305.5,234.167 305.5,234.833 305.5,235.5C 304.244,239.016 302.244,242.016 299.5,244.5C 298.5,245.167 297.5,245.833 296.5,246.5C 284.728,251.526 274.061,249.859 264.5,241.5C 264.5,241.167 264.5,240.833 264.5,240.5C 264.325,238.379 264.659,236.379 265.5,234.5C 265.557,233.391 265.89,232.391 266.5,231.5C 266.5,230.833 266.833,230.5 267.5,230.5C 268.15,230.196 268.817,229.863 269.5,229.5C 270.324,232.785 270.824,236.118 271,239.5C 271.383,238.944 271.883,238.611 272.5,238.5C 272.833,239.167 273.167,239.833 273.5,240.5C 276.68,245.752 281.347,247.752 287.5,246.5C 291.02,245.647 293.687,243.647 295.5,240.5C 296.738,238.786 297.405,236.786 297.5,234.5C 297.5,232.833 297.5,231.167 297.5,229.5C 297.369,228.624 297.702,227.957 298.5,227.5C 299.85,228.95 301.516,229.617 303.5,229.5 Z"/></g>
<g><path style="opacity:1" fill="#837b70" d="M 295.5,240.5 C 293.687,243.647 291.02,245.647 287.5,246.5C 284.833,244.833 284.833,243.167 287.5,241.5C 288.833,240.5 290.167,239.5 291.5,238.5C 292.117,238.389 292.617,238.056 293,237.5C 293.852,238.571 294.685,239.571 295.5,240.5 Z"/></g>
<g><path style="opacity:1" fill="#5e5850" d="M 277.5,239.5 C 280.584,241.101 283.917,241.768 287.5,241.5C 284.833,243.167 284.833,244.833 287.5,246.5C 281.347,247.752 276.68,245.752 273.5,240.5C 274.472,238.507 275.805,238.174 277.5,239.5 Z"/></g>
<g><path style="opacity:1" fill="#5c5449" d="M 297.5,234.5 C 297.405,236.786 296.738,238.786 295.5,240.5C 294.685,239.571 293.852,238.571 293,237.5C 292.617,238.056 292.117,238.389 291.5,238.5C 291.557,237.391 291.89,236.391 292.5,235.5C 293.309,233.708 293.809,231.708 294,229.5C 295.626,230.955 296.792,232.622 297.5,234.5 Z"/></g>
<g><path style="opacity:1" fill="#d3b9a9" d="M 191.5,241.5 C 204.22,252.157 216.886,252.157 229.5,241.5C 229.167,242.833 228.833,244.167 228.5,245.5C 226.301,250.042 223.301,254.042 219.5,257.5C 210.418,260.984 201.084,261.484 191.5,259C 187.002,257.102 183.336,254.269 180.5,250.5C 180.167,249.167 179.833,247.833 179.5,246.5C 179.263,245.209 179.596,244.209 180.5,243.5C 180.474,248.14 182.807,250.474 187.5,250.5C 189.587,250.461 190.921,249.461 191.5,247.5C 192.353,245.597 192.353,243.597 191.5,241.5 Z"/></g>
<g><path style="opacity:1" fill="#c49f8a" d="M 305.5,235.5 C 307.936,235.317 310.103,235.984 312,237.5C 313.383,240.368 314.216,243.368 314.5,246.5C 314.5,247.167 314.5,247.833 314.5,248.5C 314.167,248.5 313.833,248.5 313.5,248.5C 313.565,248.062 313.399,247.728 313,247.5C 311.629,249.041 310.129,250.375 308.5,251.5C 307.048,250.698 305.382,250.198 303.5,250C 302.603,247.689 301.27,245.856 299.5,244.5C 302.244,242.016 304.244,239.016 305.5,235.5 Z"/></g>
<g><path style="opacity:1" fill="#85624a" d="M 329.5,225.5 C 329.573,227.027 328.906,228.027 327.5,228.5C 324.565,236.519 323.731,244.852 325,253.5C 323.413,252.273 322.079,252.606 321,254.5C 320.376,256.754 319.043,258.421 317,259.5C 316.517,260.448 316.351,261.448 316.5,262.5C 319.833,262.5 323.167,262.5 326.5,262.5C 326.5,262.833 326.5,263.167 326.5,263.5C 321.167,263.5 315.833,263.5 310.5,263.5C 310.5,263.167 310.5,262.833 310.5,262.5C 313.75,260.757 316.584,258.423 319,255.5C 322.828,246.595 324.662,237.261 324.5,227.5C 326.514,227.608 328.18,226.942 329.5,225.5 Z"/></g>
<g><path style="opacity:1" fill="#c7a38c" d="M 188.5,235.5 C 189.471,237.483 190.471,239.483 191.5,241.5C 192.353,243.597 192.353,245.597 191.5,247.5C 190.921,249.461 189.587,250.461 187.5,250.5C 182.807,250.474 180.474,248.14 180.5,243.5C 180.393,241.621 180.893,241.288 182,242.5C 181.079,237.102 183.246,234.769 188.5,235.5 Z"/></g>
<g><path style="opacity:1" fill="#d9d5d2" d="M 196.5,229.5 C 196.242,233.372 196.909,237.039 198.5,240.5C 201.68,245.752 206.347,247.752 212.5,246.5C 216.856,245.831 219.856,243.498 221.5,239.5C 222.038,237.883 222.371,236.216 222.5,234.5C 223.163,232.958 223.83,231.291 224.5,229.5C 225.518,230.193 226.518,230.859 227.5,231.5C 227.833,232.167 228.167,232.833 228.5,233.5C 229.219,235.764 229.552,238.097 229.5,240.5C 229.5,240.833 229.5,241.167 229.5,241.5C 216.886,252.157 204.22,252.157 191.5,241.5C 190.471,239.483 189.471,237.483 188.5,235.5C 188.5,234.833 188.5,234.167 188.5,233.5C 188.263,232.209 188.596,231.209 189.5,230.5C 191.612,229.406 193.779,228.406 196,227.5C 196.464,228.094 196.631,228.761 196.5,229.5 Z"/></g>
<g><path style="opacity:1" fill="#83796f" d="M 221.5,239.5 C 219.856,243.498 216.856,245.831 212.5,246.5C 210.958,245.859 209.624,244.859 208.5,243.5C 209.602,242.824 210.602,242.158 211.5,241.5C 213.674,241.25 215.341,240.25 216.5,238.5C 217.583,238.461 218.583,238.127 219.5,237.5C 220.182,238.243 220.849,238.909 221.5,239.5 Z"/></g>
<g><path style="opacity:1" fill="#5b574f" d="M 202.5,238.5 C 202.953,239.458 203.619,240.292 204.5,241C 206.81,241.497 209.143,241.663 211.5,241.5C 210.602,242.158 209.602,242.824 208.5,243.5C 209.624,244.859 210.958,245.859 212.5,246.5C 206.347,247.752 201.68,245.752 198.5,240.5C 199.467,239.194 200.801,238.527 202.5,238.5 Z"/></g>
<g><path style="opacity:1" fill="#a37655" d="M 338.5,232.5 C 338.5,233.167 338.5,233.833 338.5,234.5C 337.5,234.5 336.5,234.5 335.5,234.5C 335.716,236.681 334.883,238.347 333,239.5C 332.39,247.455 330.223,254.788 326.5,261.5C 327.407,253.33 329.241,245.33 332,237.5C 333.164,234.505 335.331,232.839 338.5,232.5 Z"/></g>
<g><path style="opacity:1" fill="#e6c5b1" d="M 299.5,244.5 C 301.27,245.856 302.603,247.689 303.5,250C 305.382,250.198 307.048,250.698 308.5,251.5C 304.73,254.28 300.73,256.613 296.5,258.5C 295.522,258.023 294.689,257.357 294,256.5C 289.619,257.071 285.119,257.071 280.5,256.5C 280.709,255.914 281.043,255.414 281.5,255C 279.167,254.667 276.833,254.333 274.5,254C 272.561,253.092 271.561,251.592 271.5,249.5C 278.164,251.341 284.83,251.508 291.5,250C 293.596,249.263 295.263,248.097 296.5,246.5C 297.5,245.833 298.5,245.167 299.5,244.5 Z"/></g>
<g><path style="opacity:1" fill="#eac8b4" d="M 197.5,248.5 C 200.921,249.053 204.088,250.386 207,252.5C 212.088,251.235 217.254,250.235 222.5,249.5C 222.719,250.675 222.386,251.675 221.5,252.5C 219.076,253.423 217.076,254.923 215.5,257C 212.456,258.072 209.29,258.572 206,258.5C 200.255,258.626 194.755,257.626 189.5,255.5C 192.263,253.056 194.93,250.723 197.5,248.5 Z"/></g>
<g><path style="opacity:1" fill="#c99a7a" d="M 250.5,236.5 C 248.533,236.261 246.699,236.594 245,237.5C 243.057,241.544 241.557,245.711 240.5,250C 244.701,251.818 249.034,251.985 253.5,250.5C 253.833,249.667 254.167,248.833 254.5,248C 253.725,245.178 253.058,242.344 252.5,239.5C 254.689,244.537 257.356,249.37 260.5,254C 260.645,257.9 262.312,260.733 265.5,262.5C 265.5,262.833 265.5,263.167 265.5,263.5C 253.165,262.2 240.832,262.2 228.5,263.5C 229.261,262.609 230.261,261.942 231.5,261.5C 232.099,258.045 233.432,255.045 235.5,252.5C 237.891,247.525 240.391,242.525 243,237.5C 245.419,234.167 247.919,233.833 250.5,236.5 Z"/></g>
<g><path style="opacity:1" fill="#655f5b" d="M 310.5,262.5 C 310.5,262.833 310.5,263.167 310.5,263.5C 297.167,263.5 283.833,263.5 270.5,263.5C 270.5,263.167 270.5,262.833 270.5,262.5C 273.85,262.665 277.183,262.498 280.5,262C 275.485,261.812 272.485,259.312 271.5,254.5C 273.736,256.893 276.403,258.727 279.5,260C 288.756,261.117 297.756,260.117 306.5,257C 310.143,255.195 312.476,252.362 313.5,248.5C 313.833,248.5 314.167,248.5 314.5,248.5C 314.435,248.938 314.601,249.272 315,249.5C 316.247,247.119 316.58,247.453 316,250.5C 312.42,256.89 306.92,260.723 299.5,262C 303.152,262.499 306.818,262.665 310.5,262.5 Z"/></g>
<g><path style="opacity:0.494" fill="#3c2c22" d="M 153.5,239.5 C 154.167,240.833 154.833,242.167 155.5,243.5C 156.201,250.301 157.534,256.968 159.5,263.5C 159.167,263.5 158.833,263.5 158.5,263.5C 157.5,263.5 156.5,263.5 155.5,263.5C 156.278,262.844 156.944,262.011 157.5,261C 155.426,253.952 154.093,246.786 153.5,239.5 Z"/></g>
<g><path style="opacity:1" fill="#d9c0b2" d="M 264.5,241.5 C 274.061,249.859 284.728,251.526 296.5,246.5C 295.263,248.097 293.596,249.263 291.5,250C 284.83,251.508 278.164,251.341 271.5,249.5C 271.561,251.592 272.561,253.092 274.5,254C 276.833,254.333 279.167,254.667 281.5,255C 281.043,255.414 280.709,255.914 280.5,256.5C 285.119,257.071 289.619,257.071 294,256.5C 294.689,257.357 295.522,258.023 296.5,258.5C 300.73,256.613 304.73,254.28 308.5,251.5C 310.129,250.375 311.629,249.041 313,247.5C 313.399,247.728 313.565,248.062 313.5,248.5C 312.476,252.362 310.143,255.195 306.5,257C 297.756,260.117 288.756,261.117 279.5,260C 276.403,258.727 273.736,256.893 271.5,254.5C 268.391,250.618 266.058,246.284 264.5,241.5 Z"/></g>
<g><path style="opacity:1" fill="#c19171" d="M 338.5,234.5 C 338.5,238.5 338.5,242.5 338.5,246.5C 337.421,252.23 336.087,257.897 334.5,263.5C 331.833,263.5 329.167,263.5 326.5,263.5C 326.5,263.167 326.5,262.833 326.5,262.5C 326.5,262.167 326.5,261.833 326.5,261.5C 330.223,254.788 332.39,247.455 333,239.5C 334.883,238.347 335.716,236.681 335.5,234.5C 336.5,234.5 337.5,234.5 338.5,234.5 Z"/></g>
<g><path style="opacity:1" fill="#c49879" d="M 166.5,262.5 C 166.5,262.833 166.5,263.167 166.5,263.5C 164.167,263.5 161.833,263.5 159.5,263.5C 157.534,256.968 156.201,250.301 155.5,243.5C 155.5,242.167 155.5,240.833 155.5,239.5C 157.69,237.061 159.19,237.728 160,241.5C 160.563,247.954 161.73,254.287 163.5,260.5C 164.739,260.942 165.739,261.609 166.5,262.5 Z"/></g>
<g><path style="opacity:1" fill="#84624c" d="M 238.5,239.5 C 237.624,243.881 236.624,248.214 235.5,252.5C 233.432,255.045 232.099,258.045 231.5,261.5C 230.261,261.942 229.261,262.609 228.5,263.5C 226.833,263.5 225.167,263.5 223.5,263.5C 223.5,263.167 223.5,262.833 223.5,262.5C 226.5,260.332 229,257.666 231,254.5C 233.238,249.229 235.738,244.229 238.5,239.5 Z"/></g>
<g><path style="opacity:1" fill="#816252" d="M 263.5,256.5 C 265.833,258.5 268.167,260.5 270.5,262.5C 270.5,262.833 270.5,263.167 270.5,263.5C 268.833,263.5 267.167,263.5 265.5,263.5C 265.5,263.167 265.5,262.833 265.5,262.5C 265.296,260.315 264.63,258.315 263.5,256.5 Z"/></g>
<g><path style="opacity:1" fill="#8d5f40" d="M 338.5,227.5 C 338.5,229.167 338.5,230.833 338.5,232.5C 335.331,232.839 333.164,234.505 332,237.5C 329.241,245.33 327.407,253.33 326.5,261.5C 326.5,261.833 326.5,262.167 326.5,262.5C 323.167,262.5 319.833,262.5 316.5,262.5C 316.351,261.448 316.517,260.448 317,259.5C 319.043,258.421 320.376,256.754 321,254.5C 322.079,252.606 323.413,252.273 325,253.5C 323.731,244.852 324.565,236.519 327.5,228.5C 327.335,232.182 327.501,235.848 328,239.5C 329.64,237.421 330.806,235.088 331.5,232.5C 333.361,231.472 334.695,229.972 335.5,228C 336.448,227.517 337.448,227.351 338.5,227.5 Z"/></g>
<g><path style="opacity:0.941" fill="#3a2b23" d="M 340.5,238.5 C 340.009,246.308 338.676,253.975 336.5,261.5C 338.291,262.17 339.958,262.837 341.5,263.5C 339.167,263.5 336.833,263.5 334.5,263.5C 336.087,257.897 337.421,252.23 338.5,246.5C 339.167,243.833 339.833,241.167 340.5,238.5 Z"/></g>
<g><path style="opacity:1" fill="#8b674f" d="M 167.5,227.5 C 168.75,227.577 169.583,228.244 170,229.5C 170.031,237.306 171.031,244.973 173,252.5C 175.167,255.333 177.333,258.167 179.5,261C 180.745,261.791 182.078,262.291 183.5,262.5C 183.5,262.833 183.5,263.167 183.5,263.5C 177.833,263.5 172.167,263.5 166.5,263.5C 166.5,263.167 166.5,262.833 166.5,262.5C 167.167,262.5 167.5,262.167 167.5,261.5C 170.187,261.664 172.854,261.497 175.5,261C 173.465,258.02 171.798,254.853 170.5,251.5C 169.499,243.493 168.499,235.493 167.5,227.5 Z"/></g>
<g><path style="opacity:1" fill="#63605d" d="M 180.5,250.5 C 183.336,254.269 187.002,257.102 191.5,259C 201.084,261.484 210.418,260.984 219.5,257.5C 219.657,258.873 219.49,260.207 219,261.5C 217.703,260.216 216.536,260.383 215.5,262C 218.146,262.497 220.813,262.664 223.5,262.5C 223.5,262.833 223.5,263.167 223.5,263.5C 210.167,263.5 196.833,263.5 183.5,263.5C 183.5,263.167 183.5,262.833 183.5,262.5C 187.514,262.666 191.514,262.499 195.5,262C 187.902,261.051 182.235,257.384 178.5,251C 178.944,249.238 179.444,249.405 180,251.5C 180.399,251.272 180.565,250.938 180.5,250.5 Z"/></g>
<g><path style="opacity:0.004" fill="#3f3f3f" d="M 346.5,262.5 C 349.167,263.167 350.833,264.833 351.5,267.5C 351.167,267.5 350.833,267.5 350.5,267.5C 350.5,266.833 350.167,266.5 349.5,266.5C 349.167,265.5 348.5,264.833 347.5,264.5C 347.167,263.833 346.833,263.167 346.5,262.5 Z"/></g>
<g><path style="opacity:0.992" fill="#7d7c7d" d="M 147.5,262.5 C 150.335,263.183 153.001,263.516 155.5,263.5C 156.5,263.5 157.5,263.5 158.5,263.5C 158.5,263.833 158.5,264.167 158.5,264.5C 154.5,264.5 150.5,264.5 146.5,264.5C 146.833,263.833 147.167,263.167 147.5,262.5 Z"/></g>
<g><path style="opacity:0.992" fill="#8e8e8f" d="M 346.5,262.5 C 346.833,263.167 347.167,263.833 347.5,264.5C 346.833,264.5 346.167,264.5 345.5,264.5C 341.833,264.5 338.167,264.5 334.5,264.5C 334.5,264.167 334.5,263.833 334.5,263.5C 336.833,263.5 339.167,263.5 341.5,263.5C 343.042,262.699 344.708,262.366 346.5,262.5 Z"/></g>
<g><path style="opacity:0.918" fill="#424242" d="M 147.5,262.5 C 147.167,263.167 146.833,263.833 146.5,264.5C 144.973,264.427 143.973,265.094 143.5,266.5C 142.833,266.5 142.5,266.833 142.5,267.5C 142.167,267.5 141.833,267.5 141.5,267.5C 142.268,264.438 144.268,262.772 147.5,262.5 Z"/></g>
<g><path style="opacity:1" fill="#d5cdc8" d="M 265.5,263.5 C 267.167,263.5 268.833,263.5 270.5,263.5C 283.833,263.5 297.167,263.5 310.5,263.5C 315.833,263.5 321.167,263.5 326.5,263.5C 329.167,263.5 331.833,263.5 334.5,263.5C 334.5,263.833 334.5,264.167 334.5,264.5C 276.008,264.602 217.341,264.602 158.5,264.5C 158.5,264.167 158.5,263.833 158.5,263.5C 158.833,263.5 159.167,263.5 159.5,263.5C 161.833,263.5 164.167,263.5 166.5,263.5C 172.167,263.5 177.833,263.5 183.5,263.5C 196.833,263.5 210.167,263.5 223.5,263.5C 225.167,263.5 226.833,263.5 228.5,263.5C 240.832,262.2 253.165,262.2 265.5,263.5 Z"/></g>
<g><path style="opacity:1" fill="#cecfd3" d="M 146.5,264.5 C 146.611,265.117 146.944,265.617 147.5,266C 170.5,266.167 193.5,266.333 216.5,266.5C 259.863,266.038 303.196,265.872 346.5,266C 345.944,265.617 345.611,265.117 345.5,264.5C 346.167,264.5 346.833,264.5 347.5,264.5C 348.5,264.833 349.167,265.5 349.5,266.5C 348.878,267.627 348.045,268.627 347,269.5C 285.905,268.502 224.738,268.169 163.5,268.5C 157.167,268.5 150.833,268.5 144.5,268.5C 143.662,268.158 143.328,267.492 143.5,266.5C 143.973,265.094 144.973,264.427 146.5,264.5 Z"/></g>
<g><path style="opacity:1" fill="#dddee0" d="M 146.5,264.5 C 150.5,264.5 154.5,264.5 158.5,264.5C 217.341,264.602 276.008,264.602 334.5,264.5C 338.167,264.5 341.833,264.5 345.5,264.5C 345.611,265.117 345.944,265.617 346.5,266C 303.196,265.872 259.863,266.038 216.5,266.5C 193.5,266.333 170.5,266.167 147.5,266C 146.944,265.617 146.611,265.117 146.5,264.5 Z"/></g>
<g><path style="opacity:1" fill="#b7b8bd" d="M 143.5,266.5 C 143.328,267.492 143.662,268.158 144.5,268.5C 145.94,270.751 147.773,271.084 150,269.5C 154.621,270.492 159.288,271.159 164,271.5C 173.127,271.084 182.294,271.084 191.5,271.5C 191.5,272.5 191.5,273.5 191.5,274.5C 198.833,274.833 206.167,275.167 213.5,275.5C 213.286,277.144 213.62,278.644 214.5,280C 223.497,280.625 232.497,281.125 241.5,281.5C 241.5,282.833 241.5,284.167 241.5,285.5C 250.808,286.467 260.141,287.301 269.5,288C 267.624,289.017 265.624,289.851 263.5,290.5C 272.804,291.734 282.138,292.734 291.5,293.5C 291.167,294.167 290.833,294.833 290.5,295.5C 299.786,297.161 309.119,298.494 318.5,299.5C 318.833,300.167 319.167,300.833 319.5,301.5C 326.777,302.995 334.11,303.495 341.5,303C 342.126,302.25 342.626,301.416 343,300.5C 343.202,302.256 343.702,303.922 344.5,305.5C 346.496,298.213 347.163,290.88 346.5,283.5C 346.28,277.712 347.614,272.379 350.5,267.5C 350.833,267.5 351.167,267.5 351.5,267.5C 350.935,275.558 349.935,283.558 348.5,291.5C 347.41,300.767 345.91,310.101 344,319.5C 343.667,318.5 343.333,317.5 343,316.5C 342.581,317.672 341.915,318.672 341,319.5C 335.593,318.527 330.093,318.193 324.5,318.5C 324.5,317.167 324.5,315.833 324.5,314.5C 315.156,314.401 305.823,314.068 296.5,313.5C 296.5,312.167 296.5,310.833 296.5,309.5C 270.771,305.106 245.105,300.773 219.5,296.5C 219.5,295.167 219.5,293.833 219.5,292.5C 213.982,292.498 208.482,292.165 203,291.5C 189.833,288.5 176.667,285.5 163.5,282.5C 158.198,281.533 152.865,280.867 147.5,280.5C 147.198,277.627 146.531,274.961 145.5,272.5C 144.791,271.596 143.791,271.263 142.5,271.5C 142.5,270.167 142.5,268.833 142.5,267.5C 142.5,266.833 142.833,266.5 143.5,266.5 Z"/></g>
<g><path style="opacity:1" fill="#3c3c3e" d="M 141.5,267.5 C 141.5,269.833 141.5,272.167 141.5,274.5C 142.146,283.152 142.479,291.818 142.5,300.5C 142.737,301.791 142.404,302.791 141.5,303.5C 141.369,293.3 140.703,283.133 139.5,273C 139.393,270.779 140.06,268.946 141.5,267.5 Z"/></g>
<g><path style="opacity:1" fill="#c1c2c7" d="M 349.5,266.5 C 350.167,266.5 350.5,266.833 350.5,267.5C 347.614,272.379 346.28,277.712 346.5,283.5C 342.879,284.373 339.212,285.039 335.5,285.5C 335.5,284.167 335.5,282.833 335.5,281.5C 331.833,281.5 328.167,281.5 324.5,281.5C 324.5,280.5 324.5,279.5 324.5,278.5C 317.263,279.987 309.93,280.654 302.5,280.5C 302.5,278.833 302.5,277.167 302.5,275.5C 294.993,275.379 287.66,274.212 280.5,272C 241.284,270.581 202.284,269.414 163.5,268.5C 224.738,268.169 285.905,268.502 347,269.5C 348.045,268.627 348.878,267.627 349.5,266.5 Z"/></g>
<g><path style="opacity:1" fill="#5d5e61" d="M 142.5,300.5 C 143.482,303.962 143.815,307.629 143.5,311.5C 142.833,310.5 142.167,309.5 141.5,308.5C 141.5,306.833 141.5,305.167 141.5,303.5C 142.404,302.791 142.737,301.791 142.5,300.5 Z"/></g>
<g><path style="opacity:1" fill="#4d4e50" d="M 352.5,278.5 C 352.023,298.531 351.023,318.531 349.5,338.5C 349.5,339.167 349.5,339.833 349.5,340.5C 349.167,340.5 348.833,340.5 348.5,340.5C 348.5,339.833 348.5,339.167 348.5,338.5C 348.931,318.289 350.264,298.289 352.5,278.5 Z"/></g>
<g><path style="opacity:0.933" fill="#393d42" d="M 141.5,308.5 C 142.167,309.5 142.833,310.5 143.5,311.5C 143.5,312.5 143.5,313.5 143.5,314.5C 143.935,322.495 144.269,330.495 144.5,338.5C 143.138,340.7 141.471,342.7 139.5,344.5C 138.833,345.167 138.167,345.833 137.5,346.5C 138.847,341.671 140.847,337.171 143.5,333C 142.573,324.855 141.906,316.688 141.5,308.5 Z"/></g>
<g><path style="opacity:1" fill="#9fa0a5" d="M 141.5,267.5 C 141.833,267.5 142.167,267.5 142.5,267.5C 142.5,268.833 142.5,270.167 142.5,271.5C 144.429,281.023 145.763,290.69 146.5,300.5C 146.327,307.464 147.494,314.13 150,320.5C 150.333,319.833 150.667,319.167 151,318.5C 151.537,321.763 153.204,322.43 156,320.5C 161.333,321.833 166.667,323.167 172,324.5C 174.574,321.977 176.741,322.144 178.5,325C 186.82,325.341 194.82,326.841 202.5,329.5C 202.238,330.978 202.571,332.311 203.5,333.5C 204.833,332.167 206.167,332.167 207.5,333.5C 208.468,332.511 209.635,331.844 211,331.5C 213.679,332.895 216.512,333.561 219.5,333.5C 219.5,334.5 219.5,335.5 219.5,336.5C 223.437,336.793 227.27,336.46 231,335.5C 231.333,336.5 231.667,337.5 232,338.5C 232.333,338.167 232.667,337.833 233,337.5C 233.308,338.308 233.808,338.975 234.5,339.5C 235.527,338.209 236.527,338.209 237.5,339.5C 238.834,341.159 240.501,342.492 242.5,343.5C 244.782,342.777 247.116,342.443 249.5,342.5C 250.072,343.973 250.905,345.307 252,346.5C 253.419,345.54 254.919,344.707 256.5,344C 255.304,343.346 255.304,342.846 256.5,342.5C 257.831,343.166 259.331,343.166 261,342.5C 269.214,346.147 277.714,347.48 286.5,346.5C 288.197,347.364 289.363,348.697 290,350.5C 291.508,348.162 293.675,347.162 296.5,347.5C 296.281,348.675 296.614,349.675 297.5,350.5C 299.509,352.01 301.342,353.677 303,355.5C 304.343,351.639 305.843,351.639 307.5,355.5C 308.696,355.154 308.696,354.654 307.5,354C 311.152,353.501 314.818,353.335 318.5,353.5C 318.5,354.833 318.5,356.167 318.5,357.5C 324.369,357.213 330.036,357.88 335.5,359.5C 337.56,359.428 339.56,359.095 341.5,358.5C 343.906,351.398 345.24,344.064 345.5,336.5C 346.606,328.559 347.273,320.559 347.5,312.5C 348.386,305.543 348.72,298.543 348.5,291.5C 349.935,283.558 350.935,275.558 351.5,267.5C 353.766,270.882 354.1,274.548 352.5,278.5C 350.264,298.289 348.931,318.289 348.5,338.5C 347.778,338.918 347.278,339.584 347,340.5C 345.489,351.931 343.656,363.264 341.5,374.5C 339.5,374.5 337.5,374.5 335.5,374.5C 335.5,373.167 335.5,371.833 335.5,370.5C 325.994,370.657 316.661,369.99 307.5,368.5C 307.5,367.167 307.5,365.833 307.5,364.5C 298.509,363.959 289.509,363.626 280.5,363.5C 280.5,362.167 280.5,360.833 280.5,359.5C 271.207,358.368 261.874,357.701 252.5,357.5C 252.5,356.167 252.5,354.833 252.5,353.5C 245.167,353.5 237.833,353.5 230.5,353.5C 230.5,351.5 230.5,349.5 230.5,347.5C 226.727,346.822 223.894,348.156 222,351.5C 220.108,350.383 219.275,348.716 219.5,346.5C 217.08,346.292 214.747,346.626 212.5,347.5C 208.724,345.165 204.557,343.498 200,342.5C 198.635,342.844 197.468,343.511 196.5,344.5C 192.861,342.538 189.194,340.705 185.5,339C 177.657,337.403 169.657,336.236 161.5,335.5C 159.813,332.89 158.479,333.223 157.5,336.5C 155.517,335.018 153.684,333.351 152,331.5C 151.508,332.549 151.674,333.549 152.5,334.5C 152.192,335.308 151.692,335.975 151,336.5C 148.603,328.336 146.936,320.002 146,311.5C 144.673,298.998 143.173,286.665 141.5,274.5C 141.5,272.167 141.5,269.833 141.5,267.5 Z"/></g>
<g><path style="opacity:1" fill="#a5a6ab" d="M 146.5,300.5 C 146.972,303.902 148.472,306.902 151,309.5C 151.333,309.167 151.667,308.833 152,308.5C 157.78,309.147 163.613,309.814 169.5,310.5C 184.006,314.095 198.673,317.095 213.5,319.5C 218.344,321.349 223.177,323.015 228,324.5C 229.658,324.325 230.991,323.658 232,322.5C 232.484,324.178 233.317,324.844 234.5,324.5C 233.98,329.882 234.98,334.882 237.5,339.5C 236.527,338.209 235.527,338.209 234.5,339.5C 233.808,338.975 233.308,338.308 233,337.5C 232.667,337.833 232.333,338.167 232,338.5C 231.667,337.5 231.333,336.5 231,335.5C 227.27,336.46 223.437,336.793 219.5,336.5C 219.5,335.5 219.5,334.5 219.5,333.5C 216.512,333.561 213.679,332.895 211,331.5C 209.635,331.844 208.468,332.511 207.5,333.5C 206.167,332.167 204.833,332.167 203.5,333.5C 202.571,332.311 202.238,330.978 202.5,329.5C 194.82,326.841 186.82,325.341 178.5,325C 176.741,322.144 174.574,321.977 172,324.5C 166.667,323.167 161.333,321.833 156,320.5C 153.204,322.43 151.537,321.763 151,318.5C 150.667,319.167 150.333,319.833 150,320.5C 147.494,314.13 146.327,307.464 146.5,300.5 Z"/></g>
<g><path style="opacity:1" fill="#acadb2" d="M 142.5,271.5 C 143.791,271.263 144.791,271.596 145.5,272.5C 144.957,272.56 144.624,272.893 144.5,273.5C 145.655,278.095 146.488,282.762 147,287.5C 149.273,288.843 151.439,290.343 153.5,292C 165.988,295.195 178.655,297.361 191.5,298.5C 191.5,299.833 191.5,301.167 191.5,302.5C 197.176,302.334 202.843,302.501 208.5,303C 219.264,306.458 230.264,308.958 241.5,310.5C 243.167,311.167 244.833,311.833 246.5,312.5C 247.127,313.417 247.461,314.417 247.5,315.5C 247.238,316.978 247.571,318.311 248.5,319.5C 250.841,318.466 252.507,316.799 253.5,314.5C 254.458,314.047 255.292,313.381 256,312.5C 256.202,314.256 256.702,315.922 257.5,317.5C 257.654,316.091 257.821,314.424 258,312.5C 261.513,314.379 265.013,316.379 268.5,318.5C 269.468,317.511 270.635,316.844 272,316.5C 276.7,318.033 281.534,318.867 286.5,319C 287.5,320 288.5,321 289.5,322C 299.438,323.705 309.438,325.039 319.5,326C 322.152,327.065 323.985,328.898 325,331.5C 325.934,326.827 327.434,326.494 329.5,330.5C 330.607,329.978 331.774,329.645 333,329.5C 336.735,331.296 340.401,332.296 344,332.5C 344.843,325.637 346.009,318.97 347.5,312.5C 347.273,320.559 346.606,328.559 345.5,336.5C 344.566,340.957 343.066,345.29 341,349.5C 340.02,347.941 339.187,346.274 338.5,344.5C 337.833,345.5 337.167,346.5 336.5,347.5C 327.509,343.91 318.175,341.743 308.5,341C 306.911,339.255 304.911,338.088 302.5,337.5C 295.167,336.5 287.833,335.5 280.5,334.5C 277.631,333.599 274.798,332.599 272,331.5C 270.635,331.844 269.468,332.511 268.5,333.5C 267.019,332.52 265.685,331.353 264.5,330C 262.231,329.242 260.064,329.409 258,330.5C 256.957,326.774 256.457,327.107 256.5,331.5C 254.9,328.132 255.566,325.132 258.5,322.5C 258.167,322.167 257.833,321.833 257.5,321.5C 252.17,321.166 246.836,320.832 241.5,320.5C 238.697,320.961 236.363,322.295 234.5,324.5C 233.317,324.844 232.484,324.178 232,322.5C 230.991,323.658 229.658,324.325 228,324.5C 223.177,323.015 218.344,321.349 213.5,319.5C 198.673,317.095 184.006,314.095 169.5,310.5C 163.613,309.814 157.78,309.147 152,308.5C 151.667,308.833 151.333,309.167 151,309.5C 148.472,306.902 146.972,303.902 146.5,300.5C 145.763,290.69 144.429,281.023 142.5,271.5 Z"/></g>
<g><path style="opacity:1" fill="#d5d6db" d="M 253.5,314.5 C 252.507,316.799 250.841,318.466 248.5,319.5C 247.571,318.311 247.238,316.978 247.5,315.5C 248.857,314.315 250.357,313.315 252,312.5C 253.03,312.836 253.53,313.503 253.5,314.5 Z"/></g>
<g><path style="opacity:1" fill="#b2b3b8" d="M 145.5,272.5 C 146.531,274.961 147.198,277.627 147.5,280.5C 152.865,280.867 158.198,281.533 163.5,282.5C 176.667,285.5 189.833,288.5 203,291.5C 208.482,292.165 213.982,292.498 219.5,292.5C 219.5,293.833 219.5,295.167 219.5,296.5C 245.105,300.773 270.771,305.106 296.5,309.5C 296.5,310.833 296.5,312.167 296.5,313.5C 305.823,314.068 315.156,314.401 324.5,314.5C 324.5,315.833 324.5,317.167 324.5,318.5C 330.093,318.193 335.593,318.527 341,319.5C 341.915,318.672 342.581,317.672 343,316.5C 343.333,317.5 343.667,318.5 344,319.5C 345.91,310.101 347.41,300.767 348.5,291.5C 348.72,298.543 348.386,305.543 347.5,312.5C 346.009,318.97 344.843,325.637 344,332.5C 340.401,332.296 336.735,331.296 333,329.5C 331.774,329.645 330.607,329.978 329.5,330.5C 327.434,326.494 325.934,326.827 325,331.5C 323.985,328.898 322.152,327.065 319.5,326C 309.438,325.039 299.438,323.705 289.5,322C 288.5,321 287.5,320 286.5,319C 281.534,318.867 276.7,318.033 272,316.5C 270.635,316.844 269.468,317.511 268.5,318.5C 265.013,316.379 261.513,314.379 258,312.5C 257.821,314.424 257.654,316.091 257.5,317.5C 256.702,315.922 256.202,314.256 256,312.5C 255.292,313.381 254.458,314.047 253.5,314.5C 253.53,313.503 253.03,312.836 252,312.5C 250.357,313.315 248.857,314.315 247.5,315.5C 247.461,314.417 247.127,313.417 246.5,312.5C 244.833,311.833 243.167,311.167 241.5,310.5C 230.264,308.958 219.264,306.458 208.5,303C 202.843,302.501 197.176,302.334 191.5,302.5C 191.5,301.167 191.5,299.833 191.5,298.5C 178.655,297.361 165.988,295.195 153.5,292C 151.439,290.343 149.273,288.843 147,287.5C 146.488,282.762 145.655,278.095 144.5,273.5C 144.624,272.893 144.957,272.56 145.5,272.5 Z"/></g>
<g><path style="opacity:1" fill="#bdbec3" d="M 144.5,268.5 C 150.833,268.5 157.167,268.5 163.5,268.5C 202.284,269.414 241.284,270.581 280.5,272C 287.66,274.212 294.993,275.379 302.5,275.5C 302.5,277.167 302.5,278.833 302.5,280.5C 309.93,280.654 317.263,279.987 324.5,278.5C 324.5,279.5 324.5,280.5 324.5,281.5C 328.167,281.5 331.833,281.5 335.5,281.5C 335.5,282.833 335.5,284.167 335.5,285.5C 339.212,285.039 342.879,284.373 346.5,283.5C 347.163,290.88 346.496,298.213 344.5,305.5C 343.702,303.922 343.202,302.256 343,300.5C 342.626,301.416 342.126,302.25 341.5,303C 334.11,303.495 326.777,302.995 319.5,301.5C 319.167,300.833 318.833,300.167 318.5,299.5C 309.119,298.494 299.786,297.161 290.5,295.5C 290.833,294.833 291.167,294.167 291.5,293.5C 282.138,292.734 272.804,291.734 263.5,290.5C 265.624,289.851 267.624,289.017 269.5,288C 260.141,287.301 250.808,286.467 241.5,285.5C 241.5,284.167 241.5,282.833 241.5,281.5C 232.497,281.125 223.497,280.625 214.5,280C 213.62,278.644 213.286,277.144 213.5,275.5C 206.167,275.167 198.833,274.833 191.5,274.5C 191.5,273.5 191.5,272.5 191.5,271.5C 182.294,271.084 173.127,271.084 164,271.5C 159.288,271.159 154.621,270.492 150,269.5C 147.773,271.084 145.94,270.751 144.5,268.5 Z"/></g>
<g><path style="opacity:1" fill="#d4d5da" d="M 241.5,320.5 C 246.836,320.832 252.17,321.166 257.5,321.5C 257.833,321.833 258.167,322.167 258.5,322.5C 255.566,325.132 254.9,328.132 256.5,331.5C 256.557,332.609 256.89,333.609 257.5,334.5C 256.577,335.303 255.577,335.47 254.5,335C 249.959,330.296 245.626,325.462 241.5,320.5 Z"/></g>
<g><path style="opacity:1" fill="#c3c4c9" d="M 241.5,320.5 C 245.626,325.462 249.959,330.296 254.5,335C 255.577,335.47 256.577,335.303 257.5,334.5C 258.497,334.47 259.164,334.97 259.5,336C 257.556,340.465 254.223,342.632 249.5,342.5C 247.116,342.443 244.782,342.777 242.5,343.5C 240.501,342.492 238.834,341.159 237.5,339.5C 234.98,334.882 233.98,329.882 234.5,324.5C 236.363,322.295 238.697,320.961 241.5,320.5 Z"/></g>
<g><path style="opacity:1" fill="#98999e" d="M 141.5,274.5 C 143.173,286.665 144.673,298.998 146,311.5C 146.936,320.002 148.603,328.336 151,336.5C 151.692,335.975 152.192,335.308 152.5,334.5C 151.674,333.549 151.508,332.549 152,331.5C 153.684,333.351 155.517,335.018 157.5,336.5C 158.479,333.223 159.813,332.89 161.5,335.5C 169.657,336.236 177.657,337.403 185.5,339C 189.194,340.705 192.861,342.538 196.5,344.5C 197.468,343.511 198.635,342.844 200,342.5C 204.557,343.498 208.724,345.165 212.5,347.5C 214.747,346.626 217.08,346.292 219.5,346.5C 219.275,348.716 220.108,350.383 222,351.5C 223.894,348.156 226.727,346.822 230.5,347.5C 230.5,349.5 230.5,351.5 230.5,353.5C 237.833,353.5 245.167,353.5 252.5,353.5C 252.5,354.833 252.5,356.167 252.5,357.5C 261.874,357.701 271.207,358.368 280.5,359.5C 280.5,360.833 280.5,362.167 280.5,363.5C 289.509,363.626 298.509,363.959 307.5,364.5C 307.5,365.833 307.5,367.167 307.5,368.5C 316.661,369.99 325.994,370.657 335.5,370.5C 335.5,371.833 335.5,373.167 335.5,374.5C 337.5,374.5 339.5,374.5 341.5,374.5C 343.656,363.264 345.489,351.931 347,340.5C 347.278,339.584 347.778,338.918 348.5,338.5C 348.5,339.167 348.5,339.833 348.5,340.5C 348.5,344.5 348.5,348.5 348.5,352.5C 346.77,362.668 345.103,373.001 343.5,383.5C 342.817,383.863 342.15,384.196 341.5,384.5C 326.496,384.667 311.496,384.5 296.5,384C 293.563,383.9 290.896,383.067 288.5,381.5C 286.883,382.642 285.05,383.309 283,383.5C 279.758,383.072 276.591,382.406 273.5,381.5C 271.616,381.716 269.949,382.383 268.5,383.5C 267.77,381.659 267.103,379.825 266.5,378C 263.5,377.667 260.5,377.333 257.5,377C 255.795,373.75 254.295,373.916 253,377.5C 251.214,375.901 249.047,375.067 246.5,375C 241.177,374.501 235.844,374.334 230.5,374.5C 230.5,373.167 230.5,371.833 230.5,370.5C 226.788,370.961 223.121,371.627 219.5,372.5C 219.5,371.167 219.5,369.833 219.5,368.5C 209.898,368.939 200.565,367.606 191.5,364.5C 193.423,363.692 195.423,363.192 197.5,363C 194.657,362.554 191.824,362.054 189,361.5C 186.411,362.986 183.577,363.653 180.5,363.5C 180.5,362.167 180.5,360.833 180.5,359.5C 175.377,361.081 170.044,361.748 164.5,361.5C 164.67,360.178 164.337,359.011 163.5,358C 159.082,357.792 154.749,357.126 150.5,356C 161.147,354.842 161.147,354.009 150.5,353.5C 149.014,348.706 148.181,343.706 148,338.5C 147.617,337.944 147.117,337.611 146.5,337.5C 146.271,330.485 145.771,323.485 145,316.5C 144.722,315.584 144.222,314.918 143.5,314.5C 143.5,313.5 143.5,312.5 143.5,311.5C 143.815,307.629 143.482,303.962 142.5,300.5C 142.479,291.818 142.146,283.152 141.5,274.5 Z"/></g>
<g><path style="opacity:1" fill="#a5a6ab" d="M 345.5,336.5 C 345.24,344.064 343.906,351.398 341.5,358.5C 339.56,359.095 337.56,359.428 335.5,359.5C 330.036,357.88 324.369,357.213 318.5,357.5C 318.5,356.167 318.5,354.833 318.5,353.5C 314.818,353.335 311.152,353.501 307.5,354C 308.696,354.654 308.696,355.154 307.5,355.5C 305.843,351.639 304.343,351.639 303,355.5C 301.342,353.677 299.509,352.01 297.5,350.5C 296.614,349.675 296.281,348.675 296.5,347.5C 293.675,347.162 291.508,348.162 290,350.5C 289.363,348.697 288.197,347.364 286.5,346.5C 277.714,347.48 269.214,346.147 261,342.5C 259.331,343.166 257.831,343.166 256.5,342.5C 255.304,342.846 255.304,343.346 256.5,344C 254.919,344.707 253.419,345.54 252,346.5C 250.905,345.307 250.072,343.973 249.5,342.5C 254.223,342.632 257.556,340.465 259.5,336C 259.164,334.97 258.497,334.47 257.5,334.5C 256.89,333.609 256.557,332.609 256.5,331.5C 256.457,327.107 256.957,326.774 258,330.5C 260.064,329.409 262.231,329.242 264.5,330C 265.685,331.353 267.019,332.52 268.5,333.5C 269.468,332.511 270.635,331.844 272,331.5C 274.798,332.599 277.631,333.599 280.5,334.5C 287.833,335.5 295.167,336.5 302.5,337.5C 304.911,338.088 306.911,339.255 308.5,341C 318.175,341.743 327.509,343.91 336.5,347.5C 337.167,346.5 337.833,345.5 338.5,344.5C 339.187,346.274 340.02,347.941 341,349.5C 343.066,345.29 344.566,340.957 345.5,336.5 Z"/></g>
<g><path style="opacity:1" fill="#919297" d="M 146.5,337.5 C 147.117,337.611 147.617,337.944 148,338.5C 148.181,343.706 149.014,348.706 150.5,353.5C 161.147,354.009 161.147,354.842 150.5,356C 154.749,357.126 159.082,357.792 163.5,358C 164.337,359.011 164.67,360.178 164.5,361.5C 170.044,361.748 175.377,361.081 180.5,359.5C 180.5,360.833 180.5,362.167 180.5,363.5C 183.577,363.653 186.411,362.986 189,361.5C 191.824,362.054 194.657,362.554 197.5,363C 195.423,363.192 193.423,363.692 191.5,364.5C 200.565,367.606 209.898,368.939 219.5,368.5C 219.5,369.833 219.5,371.167 219.5,372.5C 223.121,371.627 226.788,370.961 230.5,370.5C 230.5,371.833 230.5,373.167 230.5,374.5C 235.844,374.334 241.177,374.501 246.5,375C 249.047,375.067 251.214,375.901 253,377.5C 254.295,373.916 255.795,373.75 257.5,377C 260.5,377.333 263.5,377.667 266.5,378C 267.103,379.825 267.77,381.659 268.5,383.5C 269.949,382.383 271.616,381.716 273.5,381.5C 276.591,382.406 279.758,383.072 283,383.5C 285.05,383.309 286.883,382.642 288.5,381.5C 290.896,383.067 293.563,383.9 296.5,384C 311.496,384.5 326.496,384.667 341.5,384.5C 340.737,385.268 339.737,385.768 338.5,386C 276.262,386.024 214.262,386.191 152.5,386.5C 151.377,383.625 150.544,380.625 150,377.5C 148.502,364.187 147.335,350.854 146.5,337.5 Z"/></g>
<g><path style="opacity:1" fill="#202a33" d="M 349.5,338.5 C 355.456,345.334 359.123,353.334 360.5,362.5C 358.167,357.167 355.833,351.833 353.5,346.5C 352.525,344.205 351.192,342.205 349.5,340.5C 349.5,339.833 349.5,339.167 349.5,338.5 Z"/></g>
<g><path style="opacity:1" fill="#6b8098" d="M 144.5,338.5 C 145.171,353.67 146.171,368.67 147.5,383.5C 147.5,385.833 147.5,388.167 147.5,390.5C 142.5,390.5 137.5,390.5 132.5,390.5C 131.737,389.732 130.737,389.232 129.5,389C 131.363,384.079 133.029,379.079 134.5,374C 133.833,372 133.167,370 132.5,368C 135.737,360.453 138.071,352.619 139.5,344.5C 141.471,342.7 143.138,340.7 144.5,338.5 Z"/></g>
<g><path style="opacity:0.62" fill="#1f2731" d="M 137.5,346.5 C 135.568,353.057 133.234,359.39 130.5,365.5C 131.47,358.581 133.804,352.248 137.5,346.5 Z"/></g>
<g><path style="opacity:1" fill="#6a7e96" d="M 348.5,340.5 C 348.833,340.5 349.167,340.5 349.5,340.5C 351.192,342.205 352.525,344.205 353.5,346.5C 354.82,351.04 355.653,355.706 356,360.5C 358.794,363.549 359.294,367.049 357.5,371C 358.264,376.462 358.764,381.962 359,387.5C 359.717,388.044 360.217,388.711 360.5,389.5C 355.695,390.487 350.695,390.821 345.5,390.5C 345.5,388.833 345.5,387.167 345.5,385.5C 347.52,374.615 348.52,363.615 348.5,352.5C 348.5,348.5 348.5,344.5 348.5,340.5 Z"/></g>
<g><path style="opacity:0.314" fill="#1b2027" d="M 130.5,366.5 C 130.435,369.428 129.768,372.095 128.5,374.5C 128.111,371.447 128.777,368.78 130.5,366.5 Z"/></g>
<g><path style="opacity:1" fill="#596c81" d="M 139.5,344.5 C 138.071,352.619 135.737,360.453 132.5,368C 133.167,370 133.833,372 134.5,374C 133.029,379.079 131.363,384.079 129.5,389C 130.737,389.232 131.737,389.732 132.5,390.5C 130.5,390.5 128.5,390.5 126.5,390.5C 126.5,388.833 126.5,387.167 126.5,385.5C 126.5,384.833 126.5,384.167 126.5,383.5C 128.118,380.829 128.785,377.829 128.5,374.5C 129.768,372.095 130.435,369.428 130.5,366.5C 130.5,366.167 130.5,365.833 130.5,365.5C 133.234,359.39 135.568,353.057 137.5,346.5C 138.167,345.833 138.833,345.167 139.5,344.5 Z"/></g>
<g><path style="opacity:1" fill="#5c6f85" d="M 353.5,346.5 C 355.833,351.833 358.167,357.167 360.5,362.5C 361.81,367.743 362.476,373.077 362.5,378.5C 363.08,382.649 362.414,386.316 360.5,389.5C 360.217,388.711 359.717,388.044 359,387.5C 358.764,381.962 358.264,376.462 357.5,371C 359.294,367.049 358.794,363.549 356,360.5C 355.653,355.706 354.82,351.04 353.5,346.5 Z"/></g>
<g><path style="opacity:0.72" fill="#18212b" d="M 128.5,374.5 C 128.785,377.829 128.118,380.829 126.5,383.5C 126.42,380.219 127.087,377.219 128.5,374.5 Z"/></g>
<g><path style="opacity:0.651" fill="#1e2831" d="M 360.5,362.5 C 361.6,364.277 362.434,366.277 363,368.5C 363.434,374.241 364.267,379.908 365.5,385.5C 363.98,383.412 362.98,381.078 362.5,378.5C 362.476,373.077 361.81,367.743 360.5,362.5 Z"/></g>
<g><path style="opacity:1" fill="#85878d" d="M 143.5,314.5 C 144.222,314.918 144.722,315.584 145,316.5C 145.771,323.485 146.271,330.485 146.5,337.5C 147.335,350.854 148.502,364.187 150,377.5C 150.544,380.625 151.377,383.625 152.5,386.5C 214.262,386.191 276.262,386.024 338.5,386C 339.737,385.768 340.737,385.268 341.5,384.5C 342.15,384.196 342.817,383.863 343.5,383.5C 345.103,373.001 346.77,362.668 348.5,352.5C 348.52,363.615 347.52,374.615 345.5,385.5C 344.078,385.709 342.745,386.209 341.5,387C 278.167,387.667 214.833,387.667 151.5,387C 150.264,385.612 148.931,384.446 147.5,383.5C 146.171,368.67 145.171,353.67 144.5,338.5C 144.269,330.495 143.935,322.495 143.5,314.5 Z"/></g>
<g><path style="opacity:1" fill="#737377" d="M 147.5,383.5 C 148.931,384.446 150.264,385.612 151.5,387C 214.833,387.667 278.167,387.667 341.5,387C 342.745,386.209 344.078,385.709 345.5,385.5C 345.5,387.167 345.5,388.833 345.5,390.5C 344.5,390.5 343.5,390.5 342.5,390.5C 278.833,390.5 215.167,390.5 151.5,390.5C 150.167,390.5 148.833,390.5 147.5,390.5C 147.5,388.167 147.5,385.833 147.5,383.5 Z"/></g>
<g><path style="opacity:1" fill="#373738" d="M 151.5,390.5 C 215.167,390.5 278.833,390.5 342.5,390.5C 342.5,390.833 342.5,391.167 342.5,391.5C 278.998,391.168 215.664,391.501 152.5,392.5C 151.833,392.5 151.167,392.5 150.5,392.5C 150.833,391.833 151.167,391.167 151.5,390.5 Z"/></g>
<g><path style="opacity:1" fill="#475260" d="M 362.5,378.5 C 362.98,381.078 363.98,383.412 365.5,385.5C 365.5,385.833 365.5,386.167 365.5,386.5C 364.766,387.878 364.099,389.378 363.5,391C 356.508,391.5 349.508,391.666 342.5,391.5C 342.5,391.167 342.5,390.833 342.5,390.5C 343.5,390.5 344.5,390.5 345.5,390.5C 350.695,390.821 355.695,390.487 360.5,389.5C 362.414,386.316 363.08,382.649 362.5,378.5 Z"/></g>
<g><path style="opacity:0.016" fill="#323b46" d="M 126.5,385.5 C 126.5,387.167 126.5,388.833 126.5,390.5C 128.5,390.5 130.5,390.5 132.5,390.5C 137.5,390.5 142.5,390.5 147.5,390.5C 148.833,390.5 150.167,390.5 151.5,390.5C 151.167,391.167 150.833,391.833 150.5,392.5C 142.493,392.666 134.493,392.5 126.5,392C 125.189,389.726 125.189,387.56 126.5,385.5 Z"/></g>
<g><path style="opacity:0.016" fill="#27282b" d="M 365.5,386.5 C 365.739,388.467 365.406,390.301 364.5,392C 293.834,392.5 223.167,392.667 152.5,392.5C 215.664,391.501 278.998,391.168 342.5,391.5C 349.508,391.666 356.508,391.5 363.5,391C 364.099,389.378 364.766,387.878 365.5,386.5 Z"/></g>
</svg>
